<?xml version="1.0" encoding="UTF-8" standalone="no"?>
<svg
   viewBox="0 0 512 512"
   version="1.1"
   id="svg1"
   sodipodi:docname="forms.svg"
   inkscape:version="1.3 (0e150ed6c4, 2023-07-21)"
   xmlns:inkscape="http://www.inkscape.org/namespaces/inkscape"
   xmlns:sodipodi="http://sodipodi.sourceforge.net/DTD/sodipodi-0.dtd"
   xmlns="http://www.w3.org/2000/svg"
   xmlns:svg="http://www.w3.org/2000/svg">
  <defs
     id="defs1" />
  <sodipodi:namedview
     id="namedview1"
     pagecolor="#ffffff"
     bordercolor="#000000"
     borderopacity="0.25"
     inkscape:showpageshadow="2"
     inkscape:pageopacity="0.0"
     inkscape:pagecheckerboard="0"
     inkscape:deskcolor="#d1d1d1"
     inkscape:zoom="1.6699219"
     inkscape:cx="256"
     inkscape:cy="255.70058"
     inkscape:window-width="1920"
     inkscape:window-height="1112"
     inkscape:window-x="-8"
     inkscape:window-y="-8"
     inkscape:window-maximized="1"
     inkscape:current-layer="svg1" />
  <!--!Font Awesome Pro 6.7.2 by @fontawesome - https://fontawesome.com License - https://fontawesome.com/license (Commercial License) Copyright 2025 Fonticons, Inc.-->
  <path
     d="M0 80C0 53.5 21.5 32 48 32l128 0c26.5 0 48 21.5 48 48l0 112c0 26.5-21.5 48-48 48L48 240c-26.5 0-48-21.5-48-48L0 80zM0 320c0-26.5 21.5-48 48-48l128 0c26.5 0 48 21.5 48 48l0 112c0 26.5-21.5 48-48 48L48 480c-26.5 0-48-21.5-48-48L0 320zM304 32l160 0c26.5 0 48 21.5 48 48l0 32c0 26.5-21.5 48-48 48l-160 0c-26.5 0-48-21.5-48-48l0-32c0-26.5 21.5-48 48-48zM256 240c0-26.5 21.5-48 48-48l160 0c26.5 0 48 21.5 48 48l0 32c0 26.5-21.5 48-48 48l-160 0c-26.5 0-48-21.5-48-48l0-32zm48 112l160 0c26.5 0 48 21.5 48 48l0 32c0 26.5-21.5 48-48 48l-160 0c-26.5 0-48-21.5-48-48l0-32c0-26.5 21.5-48 48-48z"
     id="path1"
     style="fill:#60aaff;fill-opacity:1" />
</svg>
