<?xml version="1.0" encoding="UTF-8"?>
<svg xmlns="http://www.w3.org/2000/svg" version="1.1" xmlns:xlink="http://www.w3.org/1999/xlink" viewBox="0 0 750 500">
  <!-- Generator: Adobe Illustrator 29.5.1, SVG Export Plug-In . SVG Version: 2.1.0 Build 141)  -->
  <defs>
    <style>
      .st0 {
        filter: url(#drop-shadow-2);
      }

      .st1 {
        filter: url(#drop-shadow-5);
      }

      .st2 {
        fill: #38383a;
      }

      .st3 {
        fill: #1e1e1e;
      }

      .st4 {
        fill: none;
      }

      .st5 {
        filter: url(#drop-shadow-4);
      }

      .st6 {
        filter: url(#drop-shadow-1);
      }

      .st7 {
        fill: #2c2c2d;
      }

      .st8 {
        fill: #1f1f21;
      }

      .st9 {
        fill: #343435;
      }

      .st10 {
        filter: url(#drop-shadow-3);
      }

      .st11 {
        clip-path: url(#clippath);
      }

      .st12 {
        fill: #262628;
      }

      .st13 {
        fill: #4a4a4c;
      }

      .st14 {
        fill: #161616;
      }
    </style>
    <clipPath id="clippath">
      <rect class="st4" width="750" height="500"/>
    </clipPath>
    <filter id="drop-shadow-1" x="-94" y="-92" width="958" height="702" filterUnits="userSpaceOnUse">
      <feOffset dx="2" dy="2"/>
      <feGaussianBlur result="blur" stdDeviation="5"/>
      <feFlood flood-color="#000" flood-opacity=".75"/>
      <feComposite in2="blur" operator="in"/>
      <feComposite in="SourceGraphic"/>
    </filter>
    <filter id="drop-shadow-2" x="-45" y="-65" width="868" height="623" filterUnits="userSpaceOnUse">
      <feOffset dx="2" dy="2"/>
      <feGaussianBlur result="blur1" stdDeviation="5"/>
      <feFlood flood-color="#000" flood-opacity=".75"/>
      <feComposite in2="blur1" operator="in"/>
      <feComposite in="SourceGraphic"/>
    </filter>
    <filter id="drop-shadow-3" x="-24" y="-44" width="816" height="584" filterUnits="userSpaceOnUse">
      <feOffset dx="2" dy="2"/>
      <feGaussianBlur result="blur2" stdDeviation="5"/>
      <feFlood flood-color="#000" flood-opacity=".75"/>
      <feComposite in2="blur2" operator="in"/>
      <feComposite in="SourceGraphic"/>
    </filter>
    <filter id="drop-shadow-4" x="25" y="-17" width="733" height="407" filterUnits="userSpaceOnUse">
      <feOffset dx="2" dy="2"/>
      <feGaussianBlur result="blur3" stdDeviation="5"/>
      <feFlood flood-color="#000" flood-opacity=".75"/>
      <feComposite in2="blur3" operator="in"/>
      <feComposite in="SourceGraphic"/>
    </filter>
    <filter id="drop-shadow-5" x="189" y="13" width="537" height="353" filterUnits="userSpaceOnUse">
      <feOffset dx="2" dy="2"/>
      <feGaussianBlur result="blur4" stdDeviation="5"/>
      <feFlood flood-color="#000" flood-opacity=".75"/>
      <feComposite in2="blur4" operator="in"/>
      <feComposite in="SourceGraphic"/>
    </filter>
  </defs>
  <g id="BACKGROUND">
    <rect class="st14" width="750" height="500"/>
  </g>
  <g id="OBJECTS">
    <g class="st11">
      <g>
        <g class="st6">
          <path class="st8" d="M217.07-17.99c-28.28,2.64-55.65,14.33-77.11,32.94-10.21,8.85-19.1,19.2-29.76,27.51-13.85,10.79-30.24,17.77-45.12,27.1C18.2,98.94-10.92,149.64-32.12,200.74c-6.15,14.82-11.88,31.03-8.04,46.61,3.54,14.35,14.74,25.66,27.09,33.79,12.35,8.12,26.16,13.79,38.73,21.58,30.42,18.85,51.79,48.86,75.63,75.55,23.83,26.69,53.46,51.85,89.09,55.14,25.93,2.39,51.81-7.21,77.77-5.21,15.81,1.22,31.32,6.73,47.14,5.64,22.6-1.55,43.23-17.54,51.59-38.59s4.66-46.13-8.34-64.68c-7.47-10.65-17.62-19.15-25.56-29.45-7.94-10.3-13.71-23.64-10.29-36.19,1.32-4.84,3.92-9.21,5.75-13.88,6.27-15.95,2.69-35.32-8.86-47.97-8.41-9.21-20.6-15.11-26.58-26.06-7.53-13.8-2.5-31.62,7.41-43.82s23.87-20.27,36.87-29.12c22.3-15.19,43.71-35.27,49.24-61.67,8-38.16-22.7-78.05-62.53-77.75-13.86.11-26.24,8.19-39.34,11.75-22.15,6.03-45.01,3.49-67.59,5.6Z"/>
          <path class="st8" d="M77.42,37.34c16.7-11.19,34.86-22.28,44.08-40.15,1.04-2.01,1.97-4.33,1.31-6.49-.78-2.54-3.43-3.95-5.88-4.97-23.66-9.82-50.32-8.25-75.84-6.02-11.34.99-22.85,2.12-33.41,6.36C-21.25-2.35-36.71,29.9-41.06,60.75c-1.65,11.7-2.08,23.78,1.08,35.17,2.58,9.3,10.84,27.58,23.07,24.66,10.33-2.46,21.66-22.31,28.99-29.78,19.75-20.13,41.94-37.78,65.35-53.46Z"/>
          <path class="st8" d="M429.38,37.62c6.83,16.26,12.81,33.16,14.11,50.74,1.29,17.59-2.54,36.11-13.59,49.84-4.95,6.15-11.32,11.37-14.52,18.6-5.09,11.49-.92,24.83-2.26,37.33-3.3,30.64-37.89,49.16-45.86,78.93-4.99,18.65,1.68,38.99,13.65,54.13,11.97,15.14,28.68,25.79,45.79,34.73,28.65,14.98,62.48,26.07,92.97,15.3,31.6-11.16,50.95-42.53,65.73-72.61s28.85-62.73,56.44-81.76c23.28-16.06,52.99-19.87,81.24-18.65,13.15.57,26.56,2.09,39.32-1.16,24.87-6.34,41.8-29.28,53.13-52.31,8.21-16.69,14.63-34.26,19.1-52.31,3.46-13.97,5.78-28.42,4.35-42.74-2.59-25.96-17.5-49.6-37.07-66.85-19.57-17.25-43.54-28.74-67.96-37.93-85.18-32.07-179.94-38.2-268.54-17.37-18.12,4.26-68.11,14.33-70.7,38.25-1.08,9.98,8.4,15.51,13.59,22.87,9,12.78,15.07,28.62,21.1,42.97Z"/>
          <path class="st3" d="M346.87,122.38c-6.7,3.66-13.59,7.22-19.1,12.51-5.51,5.29-9.53,12.69-8.85,20.29,1.22,13.64,15.95,21.7,21.96,34,2.69,5.5,3.53,11.69,4.7,17.7,1.17,6.01,2.82,12.17,6.75,16.88,3.93,4.7,10.7,7.52,16.36,5.18,3.65-1.51,6.2-4.8,8.53-7.98,3.17-4.32,6.32-8.84,7.59-14.04,1.67-6.82-.07-13.94-.63-20.94-1.18-14.72,3.09-29.81,11.82-41.73,4.49-6.13,10.11-11.44,13.97-17.98,5.12-8.69,6.82-19.33,4.65-29.18-4.16-18.87-18.48-5.5-27.44.62-13.01,8.89-26.47,17.13-40.31,24.68Z"/>
          <path class="st3" d="M363.98,443.83c-10.15,7.5-20.97,14.94-27.21,25.91s-6.19,26.76,3.76,34.53c3.52,2.75,7.86,4.21,12.19,5.27,18.37,4.47,37.61,2.28,56.38.07,22.99-2.7,45.98-5.41,68.97-8.11,8.28-.97,17.04-2.14,23.55-7.35,8.11-6.49,10.76-18.12,8.79-28.32-1.97-10.2-7.84-19.22-14.3-27.36-17.98-22.67-49.15-51.67-79.42-55.12-15.22-1.73-21.3,5.69-24.9,19.47-4.9,18.74-12.04,29.35-27.81,41Z"/>
          <path class="st8" d="M680.65,235.44c-30.59,10.83-58.89,31.94-71.63,61.79-4.55,10.67-7,22.09-10.47,33.16-9.11,29.12-26.45,56.96-53.06,71.86-5.75,3.22-12.02,5.93-16.36,10.88-8.78,10.02-6.72,25.44-2.26,37.99,4.46,12.55,10.9,25.24,9.21,38.45-.69,5.44-2.76,10.75-2.41,16.22.7,10.94,10.64,18.89,20.46,23.76,29.88,14.8,64.74,14.32,98.07,13.53,32.18-.77,65.27-1.73,94.88-14.36,16.11-6.87,30.63-16.99,44.37-27.85,21.07-16.66,41.33-36.34,49.91-61.79,4.81-14.29,5.65-29.63,5.29-44.71-.95-40.59-10.39-80.94-27.3-117.84-7.07-15.42-15.48-36-28.39-47.55-10.08-9.02-23-6.65-35.56-6.02-25.34,1.28-50.69,3.96-74.74,12.47Z"/>
          <path class="st3" d="M12.26,313.12c7.22,3.26,14.49,6.57,20.81,11.35,7.66,5.8,13.53,13.48,18.81,21.58,4.68,7.19.18,16.8-8.32,17.92-1.41.19-2.83.25-4.24.21-7.13-.24-13.9-2.97-20.51-5.66-6.28-2.56-12.56-5.11-18.84-7.67-7.3-2.97-14.67-5.98-21.07-10.59-6.39-4.6-11.81-11.02-13.65-18.68-2.37-9.87,4.32-20.27,14.91-21.03,10.08-.73,23.22,8.56,32.11,12.57Z"/>
          <path class="st8" d="M80.98,392.54c13.85,8.22,24.17,21.15,36.42,31.61,23.9,20.39,55.8,31.15,87.18,29.4,13.71-.77,27.21-3.81,40.92-4.65,13.71-.84,28.16.77,39.58,8.4,10.8,7.22,17.76,19.21,21.05,31.77,3.9,14.91,2.58,32.11-7.42,43.83-6.9,8.09-17.01,12.66-25.1,19.58-7.57,6.47-13.25,14.89-20.75,21.44-18.99,16.58-46.3,18.73-71.51,18.77-31.38.05-62.78-1.92-93.85-6.37-30.08-4.31-60.3-11.12-86.86-25.88-49.97-27.78-82.49-84.39-81.3-141.55.49-23.85,7.88-49.68,27.65-63.04,10.98-7.42,22.07-5.95,32.15,2.07,8.99,7.15,16.84,12.09,28.17,15.28,24.37,6.85,51.36,6.1,73.67,19.34Z"/>
        </g>
        <g class="st0">
          <path class="st12" d="M278.08.4c-27.64,6.63-57.25,3.1-84.26,11.98-25.64,8.43-46.35,27.15-69.27,41.41-10.04,6.25-20.79,11.84-28.74,20.6-11.61,12.8-15.76,31.81-10.95,48.41,5.91,20.35,23.25,34.97,39.73,48.31,7.11,5.75,14.21,11.51,21.32,17.26,6.66,5.39,13.46,10.87,21.45,13.97,21.81,8.47,46.78-3.01,63.39-19.48,16.61-16.47,27.85-37.58,43.37-55.09,20.61-23.25,48.03-39.34,70.66-60.62,4.26-4.01,8.47-8.37,10.52-13.85,2.26-6.05,1.64-12.77.65-19.16-7.28-47-40.71-42.65-77.85-33.75Z"/>
          <path class="st12" d="M-9.67,241.47c9.92,18.11,30.21,27.31,47.95,37.87,15.69,9.34,30.19,20.53,44.64,31.7,8.81,6.8,17.7,13.68,24.77,22.27,8.31,10.08,13.8,22.12,20.27,33.47,12.87,22.56,31.81,43.9,57.16,49.53,27.56,6.11,55.63-7.61,83.86-7.44,17.72.1,36.99,5.37,52.16-3.78,9.36-5.65,15.17-16.07,17.15-26.82s.51-21.87-2.04-32.5c-2.06-8.6-4.93-17.22-10.29-24.25-6.3-8.26-15.82-14.06-20.39-23.39-6.29-12.85-1.39-28.05-1.13-42.36.3-16.88-7.52-34.92-22.78-42.14-11.36-5.38-24.78-4.03-36.9-.69-12.12,3.34-23.75,8.54-36.14,10.67-12.89,2.22-26.12,1.04-39.05-.93-10.41-1.58-20.94-3.74-30.11-8.92-8.78-4.96-15.83-12.42-22.74-19.76-22.27-23.67-51.21-70.73-88.12-47.18C-.68,165.5-28.45,206.6-9.67,241.47Z"/>
          <path class="st12" d="M28.41-3.71C13.95,3.19.42,12.59-9.41,25.25c-9.83,12.66-15.7,28.8-14.14,44.74.15,1.59.39,3.19.97,4.67,2.69,6.77,11.97,8.63,18.73,5.92,6.76-2.72,11.66-8.55,16.67-13.83,18.09-19.06,40.72-33.08,62.47-47.83,5.97-4.04,13.79-10.09,12.9-18.25-.66-6.05-6.75-12.82-12.56-14.59-5.75-1.75-12.53.16-18.25,1.09-10.15,1.65-19.69,4.68-28.97,9.11Z"/>
          <path class="st12" d="M434.62,169.17c-1.76,14.08,2.05,28.28,0,42.35-1.89,12.96-8.67,24.8-17.41,34.37-4.53,4.96-9.62,9.45-13.51,14.93-18.85,26.54,7.98,61.79,30.25,76.07,20.83,13.35,49.05,20.98,73.32,13.98,38.46-11.09,61.75-59.75,71.81-95.15,8.55-30.1,6.73-65.27-13.02-90.73-18.36-23.68-47.61-38.4-77.14-41.72-6.44-.72-13.04-.69-19.29,1.22-18.55,5.66-32.66,25.89-35.01,44.68Z"/>
          <path class="st12" d="M447.63,8.82c.87,11.94,5.11,23.33,9.3,34.54,3.63,9.71,7.47,19.74,14.83,27.04,5.59,5.55,12.83,9.11,20.1,12.14,18,7.51,37.13,12.43,54.19,21.87,17.67,9.79,32.66,24.35,42.95,41.73,7.39,12.48,13.01,27.04,25.22,34.86,10.7,6.85,24.43,6.99,36.92,4.65,12.49-2.34,24.52-6.89,37.1-8.72,13.13-1.91,26.48-.8,39.74-1.34,13.25-.54,27.01-2.98,37.61-10.95,9.38-7.05,15.31-17.66,20.96-27.94,6.19-11.25,12.45-22.71,15.19-35.25,3.18-14.57,1.4-29.75-1.16-44.44-3-17.18-7.23-34.59-16.88-49.12-17.31-26.04-48.89-38.44-79.21-46.09-67.58-17.05-139.16-18.01-207.17-2.77-27.35,6.13-52.04,17.57-49.7,49.79Z"/>
          <path class="st8" d="M404.23,435.07c-7.03,13.05-21.35,21.66-26.03,35.72-1.28,3.84-1.71,8.23.16,11.82,2.29,4.4,7.47,6.54,12.4,7.14,12.41,1.51,24.37-4.4,36.57-7.12,13.16-2.94,27.44-2.32,39.29-8.77,5.23-2.85,10.1-7.82,9.9-13.77-.17-4.99-3.8-9.09-7.22-12.72-6.53-6.93-13.11-13.82-19.52-20.87-4.5-4.95-9.24-11.28-15.56-14.02-16.17-7.01-24.13,11.57-29.98,22.59Z"/>
          <path class="st12" d="M671.16,264.73c-17.02,7.22-34.28,17.16-42.6,33.67-3.45,6.85-5.14,14.45-6.39,22.02-3.25,19.63-3.09,41.82,9.89,56.91,14.84,17.25,40.34,18.91,61.94,26.07,22.33,7.4,44.18,21.98,67.31,17.69,20.28-3.76,35.6-22.06,40.96-41.98,5.35-19.92,2.34-41.14-2.81-61.11-4.56-17.67-10.74-34.9-14.39-52.8-2.84-13.91-3.29-23.86-19.15-23.19-31.72,1.33-65.66,10.36-94.75,22.71Z"/>
          <path class="st12" d="M572.13,404.03c-4.17,2.59-8.34,5.18-12.52,7.77-4.12,2.56-8.32,5.18-11.49,8.86-4.25,4.93-6.35,11.65-5.68,18.12.63,6.09,3.55,11.67,5.94,17.31,3.83,9.03,6.4,18.59,7.63,28.32,1.21,9.57,1.59,20.36,8.64,26.94,7.2,6.71,18.6,6.15,27.93,3.03,5.87-1.97,11.87-5.17,14.49-10.78,1.89-4.05,1.72-8.71,1.89-13.17.66-16.63,6.83-32.99,17.32-45.91,5.98-7.37,13.78-14.79,13.53-24.27-.3-11.34-12.25-27.4-24.02-29.09-15.59-2.25-30.9,4.93-43.67,12.87Z"/>
          <path class="st12" d="M643.63,444.45c-3.71,10.99-7.23,22.25-7.41,33.85-.11,7.3,1.19,14.81,5.12,20.96,5.99,9.36,17.22,14.2,28.24,15.6,11.02,1.41,22.17-.08,33.27-.56,12.35-.53,24.86.18,36.97-2.32s24.19-8.86,29.91-19.82c2.45-4.69,3.6-9.94,4.33-15.17.62-4.38.96-8.89-.09-13.18-1.86-7.65-7.94-13.69-14.81-17.53-6.87-3.84-14.59-5.82-22.11-8.12-19.79-6.04-37.86-16.2-57.31-22.79-19.21-6.51-31,13.93-36.12,29.07Z"/>
          <path class="st12" d="M30.14,407.26c6.99,1.68,14.12,3.02,20.73,5.85,16.29,6.98,27.52,22.08,42.26,31.92,16.3,10.89,37.19,15.6,49.7,30.69,5.19,6.26,8.55,14.02,9.55,22.08.6,4.85.32,10-2.09,14.26-2.93,5.18-8.51,8.26-14.04,10.44-31.3,12.38-66.44,4.24-99.49-2.16-14.04-2.72-28.81-5.38-39.95-14.35-15.11-12.16-19.89-32.78-23.54-51.82-2.09-10.9-4.08-21.92-4.35-33.05-.18-7.51-.91-24.24,5.75-29.54,6.4-5.09,16.78,2.34,22.78,4.89,10.57,4.48,21.52,8.09,32.68,10.78Z"/>
          <path class="st12" d="M176.41,486c2.47-2.9,5.99-4.65,9.42-6.33,8.49-4.17,17.05-8.36,26.16-10.89,22.3-6.2,47.35-1.6,65.99,12.12,3.22,2.37,6.33,5.08,8.15,8.64,4.23,8.27.39,18.28-4.15,26.38-2.61,4.66-5.52,9.28-9.62,12.71-6.63,5.54-15.54,7.35-24.09,8.57-13.44,1.93-27.02,2.89-40.6,2.88-11.77-.01-29.16-1.74-32.77-15.4-2.67-10.08-5.69-30.22,1.52-38.67Z"/>
        </g>
        <g class="st10">
          <path class="st7" d="M320.42,24.96c-9.1-5.47-20.23-6.17-30.85-6.07-52.42.49-104.58,17.34-147.37,47.64-7.24,5.12-14.4,10.83-18.75,18.55-6,10.64-5.83,23.98-1.74,35.49,4.09,11.51,11.72,21.44,20.1,30.32,3.5,3.71,7.17,7.3,11.37,10.18,10.82,7.42,26.4,9.32,36.76,1.28,7.18-5.57,10.64-14.75,11.95-23.74,1.32-8.99.83-18.15,1.85-27.17,1.72-15.16,8.4-30.55,21.13-38.94,11.05-7.28,24.95-8.38,38.18-8.74,18.56-.5,42.8,2.53,60.05-5.62,15.57-7.36,10.02-25.56-2.69-33.19Z"/>
          <path class="st7" d="M13.92,184.66c-8.46,13.22-12.34,31.74-2.51,43.97,3.54,4.4,8.44,7.45,13.06,10.71,13.82,9.75,25.74,21.99,39.52,31.8,13.78,9.82,30.32,17.3,47.14,15.49,16.82-1.81,33.09-15.44,33.2-32.35.07-10.91-6.29-20.97-14.22-28.46-10.59-10.01-23.72-16.84-34.56-26.59-9.85-8.86-17.08-19.85-26.37-29.17-18.36-18.41-43.18-4.3-55.26,14.59Z"/>
          <path class="st7" d="M231.55,236.26c13.23-3.53,26.95-4.16,35.88,3.84,14.66,13.14,9.23,38.45,13.66,55.65,6.4,24.8,31.93,40.49,33.52,66.42.26,4.18-.29,8.53-2.43,12.13-12.56,21.17-54.34,18.07-74.7,17.49-19.99-.57-39.14,2.38-57.97-6.29-34.93-16.08-55.11-58.4-30.9-92.12,14.01-19.51,33.42-35.41,54.9-46.06,7.22-3.58,17.47-8.24,28.03-11.06Z"/>
          <path class="st7" d="M21.9,20.88c-1.94,2.15-3.74,4.58-4.35,7.42-.61,2.84.24,6.15,2.66,7.74,2.59,1.69,6.15.97,8.71-.78s4.38-4.33,6.41-6.66c6.07-6.96,14.06-11.74,21.87-16.48,3.9-2.37,15.45-7.22,7.11-11.06-6.84-3.15-14.58,1.25-20.47,4.25-8.02,4.08-15.85,8.83-21.94,15.57Z"/>
          <path class="st7" d="M459.22,198.02c.77,12.41,1.56,25.4-3.53,36.74-4.51,10.04-13.25,17.84-17.06,28.17-7.1,19.22,5.35,40.76,21.86,52.9,8.86,6.52,19.37,11.44,30.37,11.34,14.02-.12,27.01-8.5,35.66-19.54,8.65-11.03,13.56-24.51,17.54-37.95,6.97-23.55,11.52-48.71,5.75-72.58-5.63-23.26-26.99-50.24-51.89-54.81-32.53-5.96-40.12,32.49-38.68,55.72Z"/>
          <path class="st7" d="M478.66-7.04c-2.74,3.37-4.76,7.31-6.01,11.47-5.43,18.02,4.37,37.8,18.86,49.8,14.49,12,32.91,17.95,50.73,23.97,17.82,6.03,36.12,12.74,49.66,25.8,12.1,11.67,19.32,27.35,28.36,41.52,3.25,5.09,6.97,10.21,12.35,12.96,5.16,2.63,11.2,2.76,16.99,2.64,24.46-.47,48.86-4.11,72.39-10.81,11.89-3.38,24.02-7.83,32.65-16.69,11.55-11.86,14.74-29.31,17.16-45.68,1.86-12.59,3.57-25.33,2.41-38-1.16-12.67-5.46-25.43-14.21-34.66-8.98-9.47-21.64-14.35-33.94-18.72-65.78-23.38-129.3-32.74-198.74-23.89-16.68,2.13-37.54,6.56-48.67,20.29Z"/>
          <path class="st7" d="M656.48,313.35c-5.23,13.03-3.21,29.43,7.09,38.96,5.65,5.23,13.1,7.99,20.33,10.63,13.72,5,27.44,10.01,41.17,15.01,9.1,3.32,19.34,6.61,28.16,2.61,8.28-3.75,12.67-12.84,15.37-21.53,1.34-4.31,2.44-8.87,1.61-13.32-1.5-8.08-8.76-13.6-13.41-20.37-12.6-18.37-4.32-51.12-34.49-51.55-24.75-.35-56.39,16.03-65.83,39.55Z"/>
          <path class="st7" d="M576.45,426.3c-6.52,6.33-8.54,16.84-4.83,25.14,1.93,4.31,5.21,7.98,6.62,12.48.99,3.14,1,6.51,1.9,9.68.9,3.17,3.08,6.34,6.32,6.89,1.35.23,2.75-.04,4.02-.55,5.17-2.09,7.86-7.88,8.77-13.39.91-5.5.54-11.21,1.97-16.6,2.26-8.48,18.27-23.62,9.2-31.58-8.83-7.75-27.07,1.23-33.98,7.93Z"/>
          <path class="st7" d="M669.11,442.43c-5.59,5.5-10.77,12.13-11.62,19.93-.66,6.08,1.43,12.2,4.56,17.46,1.69,2.84,3.78,5.58,6.66,7.2,3.49,1.96,7.68,2.06,11.68,2.11,13.45.16,26.9.32,40.35.48,4.99.06,10.16.08,14.73-1.94,3.78-1.68,6.84-4.64,9.54-7.77,1.39-1.61,2.74-3.33,3.4-5.36,1.06-3.25.19-6.89-1.6-9.8-3.04-4.92-8.4-7.96-13.86-9.88-6.41-2.26-13.17-3.35-19.39-6.18-4.68-2.12-8.76-5.12-13.18-7.66-10.5-6.04-22.12-7.58-31.27,1.42Z"/>
          <path class="st7" d="M38.67,435.62c3.45,1.06,6.97,2.03,10.13,3.76,5.46,2.98,9.48,7.96,13.81,12.43,7.57,7.81,16.46,14.34,26.19,19.22,6.55,3.28,13.6,5.91,19.01,10.84,5.42,4.93,8.82,13.07,5.7,19.7-2.48,5.26-8.45,8.17-14.26,8.56-5.8.39-11.52-1.31-17.06-3.08-18.65-5.97-36.96-12.98-54.83-21.01-10.05-4.51-20.38-9.7-26.79-18.66-4.96-6.94-7.06-15.45-9.07-23.74-2.31-9.57-6.52-26.91,9.61-23.55,12.49,2.6,25.03,11.7,37.54,15.53Z"/>
          <path class="st7" d="M204.45,495.91c-4.7,3.45-9.22,8.59-8.39,14.36.51,3.5,2.99,6.49,6.01,8.33,3.02,1.84,6.55,2.66,10.04,3.2,17.12,2.65,61.57-1.46,44.18-27.98-11.29-17.22-38.75-7.53-51.85,2.09Z"/>
        </g>
        <g class="st5">
          <path class="st7" d="M231.67,95.81c-2.21,4.3-3.45,9.03-4.45,13.76-1.12,5.32-1.93,10.96-.19,16.11,1.74,5.15,6.78,9.57,12.16,8.84,5.31-.72,8.77-5.73,11.8-10.15,3.32-4.83,6.93-9.47,11.1-13.59,5.74-5.66,36.66-32.9,13.79-37.13-14.44-2.67-37.78,9.66-44.21,22.15Z"/>
          <path class="st9" d="M42.72,220.98c6.85,8.03,18.27,10.3,26.8,16.52,3.87,2.82,7.09,6.42,10.68,9.59,3.58,3.17,7.72,6.01,12.44,6.79,4.72.78,10.12-.94,12.49-5.1,1.99-3.49,1.51-7.98-.32-11.56-5.83-11.43-25.79-25.86-37.41-32.01-11.26-5.96-38.99-1-24.68,15.77Z"/>
          <path class="st9" d="M147.63,97.61c-2.49,6.99-1.44,14.88,1.49,21.7,2.35,5.48,6.13,10.67,11.58,13.09,5.45,2.42,12.73,1.29,16.06-3.66,3.3-4.9,1.9-11.4,1.84-17.31-.1-10.04,5.2-17.54,7.12-26.91,1.15-5.61-.93-9-6.69-9.85-12.7-1.88-27.48,11.96-31.39,22.94Z"/>
          <path class="st9" d="M224.95,42.83c-2.71.98-5.55,2.22-7.93,3.89-3.91,2.74-1.1,8.87,3.51,7.66.03,0,.06-.02.09-.02,25.68-6.77,51.68-5.02,77.88-6.29,11.29-.54,10.59-8,1.31-12.52-9.48-4.62-24.42-2.54-34.6-1.63-13.73,1.23-27.31,4.22-40.27,8.92Z"/>
          <path class="st9" d="M168.51,309.23c-4.51,7.49-8.14,16.69-4.9,24.82,1.27,3.19,3.5,5.91,5.88,8.39,20.91,21.85,53.2,28.02,83.4,29.79,7.75.45,15.76.66,23.03-2.06,7.27-2.72,13.71-9.06,14.28-16.8.59-8.08-5.02-15.14-10.3-21.28-4.92-5.72-9.84-11.45-14.77-17.17-7.44-8.65-13.75-17.01-16.37-28.29-1.72-7.42-3-16.3-9.91-20.94-13.97-9.38-38.13,9.26-48.37,17.9-8.64,7.29-16.14,15.96-21.98,25.65Z"/>
          <path class="st9" d="M479.41,194.76c1.31,2.9,3.28,5.51,4.33,8.52,1.63,4.63.96,9.79,2.3,14.51,1.89,6.63,7.54,11.61,13.7,14.7,5.98,3,13.3,4.54,19.3,1.57,7.47-3.69,10.35-12.96,10.55-21.29.39-15.81-7.86-40.19-24.06-46.7-16.67-6.69-33.28,12.87-26.12,28.69Z"/>
          <path class="st9" d="M464.91,286.8c6.77,9.44,16.86,18.07,28.46,17.45,11.35-.61,20.53-10.11,24.91-20.6,21.13-50.65-87.38-44.3-53.37,3.16Z"/>
          <path class="st9" d="M553.94-2.78c-8.58.74-17.57,2.07-24.39,7.33-6.82,5.25-10.41,15.65-5.54,22.75,2.2,3.21,5.69,5.25,9.08,7.16,20.73,11.66,42.03,22.3,63.8,31.87,12,5.27,24.66,10.6,32.87,20.82,6.69,8.33,9.95,19.39,18.14,26.25,7.32,6.13,17.39,7.82,26.93,7.87,15.49.09,31.31-3.7,43.88-12.75,12.57-9.04,21.49-23.72,21.6-39.21.14-19.44-13.34-36.93-29.95-47.02-16.61-10.1-36.08-14.17-55.13-18.07-33.9-6.95-66.6-9.96-101.3-6.99Z"/>
          <path class="st9" d="M692.08,319.18c-.96,1.15-1.88,2.36-2.4,3.77-.53,1.43-.6,2.99-.46,4.5.45,4.74,3.08,9.22,7,11.92,2.53,1.74,5.5,2.74,8.48,3.5,5.15,1.32,10.46,2.02,15.78,2.07,1.78.02,3.61-.05,5.22-.81,1.6-.76,2.92-2.39,2.8-4.16-.18-2.65-3-4.14-4.17-6.32-1.24-2.32-1.39-5.12-1.74-7.68-.51-3.64-.63-7.89-2.88-10.98-7.69-10.54-21.2-3.57-27.63,4.19Z"/>
        </g>
        <g class="st1">
          <path class="st2" d="M202.88,323.16c-.11,4.47,3.32,8.16,6.64,11.17,8.99,8.13,20.31,15.66,32.3,13.88,5.95-.88,12.15-5.21,12.16-11.23,0-.82-.13-1.66-.58-2.34-.66-.98-1.86-1.43-2.97-1.83-5.08-1.84-10.22-4.12-14.39-7.64-5.02-4.23-6.7-10.41-11.13-15-8.29-8.61-21.78,2.78-22.04,12.99Z"/>
          <path class="st2" d="M640.51,26.96c-4.62.94-9.11,4.01-10.33,8.56-1.46,5.49,2.18,11.1,6.57,14.71,4.39,3.6,9.69,6.11,13.56,10.26,6.26,6.72,8.09,17.06,15.4,22.62,5.29,4.02,12.34,4.67,18.98,5.02,3.7.2,7.5.33,10.98-.93,17.79-6.43,14.98-36.9,2.4-47.11-11.9-9.65-43.45-16.01-57.56-13.14Z"/>
        </g>
        <g>
          <path class="st13" d="M528.29,199.71c-2.91-11.19-7.9-22.78-17.3-29.96-7.09-5.73-16.84-6.19-24.14-.55-2.35,1.75-4.36,3.96-5.98,6.43,1.43-2.59,3.38-4.91,5.68-6.82,7.52-6.18,17.49-5.77,25.04.14,9.53,7.42,14.52,19.19,16.7,30.76h0Z"/>
          <path class="st13" d="M64.32,1.07c-7.02-2.75-14,1.46-20.14,4.59-8.42,4.37-16.75,9.36-23.08,16.53-1.57,1.77-2.92,3.79-3.54,6.11.4-2.38,1.7-4.53,3.16-6.43,6.08-7.54,14.47-12.77,23.05-17.03,6.16-3.1,13.7-7.14,20.55-3.78h0Z"/>
          <path class="st13" d="M610.43,418.37c-8.52-6.45-21.95-.15-29.69,5.09-4.47,2.93-7.96,7.15-9.54,12.28-1.66,5.03-1.56,10.67.42,15.69-2.39-4.9-2.7-10.7-1.15-15.92,1.44-5.33,5.18-9.83,9.7-12.88,7.97-5.32,21.85-11.53,30.26-4.27h0Z"/>
          <path class="st13" d="M746.81,464.73c-5.3-7.96-15.12-10.1-23.8-12.4-4.45-1.16-8.91-2.63-12.96-4.92-4.06-2.24-7.81-4.94-11.86-7.01-11.15-5.79-22.15-5.5-30.83,4.28-4.72,4.92-8.93,10.77-9.87,17.69.62-6.98,4.75-13.1,9.41-18.13,8.76-10.31,20.26-10.6,31.74-4.73,4.13,2.16,7.86,4.88,11.85,7.11,3.96,2.29,8.32,3.7,12.73,4.98,8.6,2.44,18.66,4.92,23.59,13.14h0Z"/>
          <path class="st13" d="M256.3,493.81c-11.78-16.32-36.76-7.43-50.58,1.66-4.93,3.34-10.24,8.3-9.66,14.79-1.04-6.53,4.33-11.94,9.22-15.42,13.79-9.61,39.78-18.44,51.02-1.03h0Z"/>
          <path class="st13" d="M104.81,237.23c-6.83-11.88-27.39-26.74-39.87-32.56-7.06-2.52-22.52-2.34-25.7,5.87-1.16,3.77,1.22,7.54,3.48,10.44-2.49-2.85-5-6.59-3.95-10.58,3.2-8.82,18.96-9.24,26.49-6.63,12.56,5.64,33.38,21.15,39.55,33.46h0Z"/>
          <path class="st13" d="M185.71,84.52c1.73-9.06-6.31-10.66-13.4-9.02-4.41,1.09-8.41,3.44-12,6.18-5.31,4.31-9.94,9.59-12.68,15.94,1.44-4.4,4.03-8.38,7.09-11.83,3.07-3.48,6.72-6.47,10.84-8.69,7.27-4.42,23.41-5.23,20.16,7.43h0Z"/>
          <path class="st13" d="M299.82,35.54c-9.99-4.09-21.06-2.36-31.5-1.47-14.14,1.2-28.13,3.87-41.59,8.39-3.38,1.07-6.72,2.32-9.71,4.26,2.86-2.13,6.22-3.49,9.55-4.72,13.36-4.94,27.47-7.8,41.66-8.83,10.46-.83,21.8-2.28,31.59,2.37h0Z"/>
          <path class="st13" d="M719.71,315c-7.62-9.64-20.69-3.19-27.36,4.25-1.05,1.12-2.03,2.3-2.67,3.7.43-1.49,1.37-2.79,2.3-4.02,6.31-8.32,20.67-14.87,27.74-3.94h0Z"/>
          <path class="st13" d="M250.43,332.81c-6.3-2.11-12.84-4.86-17.25-10.03-4.24-4.79-6.19-12.5-12.58-14.78-3.05-.95-6.44,0-9.13,1.77-4.64,3.11-8.39,8.49-8.28,14.24.33,4.22,3.41,7.46,6.34,10.32-5.97-4.87-9.04-10.25-5.25-17.71,2.96-5.91,9.66-11.46,16.62-9.57,6.7,2.4,8.73,10.23,12.88,15.25,4.2,5.18,10.59,8.05,16.66,10.52h0Z"/>
          <path class="st13" d="M520.8,268.1c-3.55-17.05-24.55-20.95-39.32-18.67-5.28.83-10.48,2.5-15.01,5.42,4.31-3.27,9.56-5.17,14.88-6.17,14.89-2.81,36.98,1.74,39.45,19.43h0Z"/>
          <path class="st13" d="M698.08,40.1c-10.23-6.99-22.66-9.9-34.71-12.02-6.08-.99-12.26-1.62-18.39-1.28-3.04.15-6.14.55-8.85,2.03-2.71,1.37-5.02,3.71-5.95,6.69.71-3.05,3-5.57,5.71-7.12,2.72-1.61,5.93-2.12,9.03-2.37,6.23-.51,12.47.14,18.61,1.06,12.08,2.22,24.71,5.31,34.55,13.01h0Z"/>
        </g>
      </g>
    </g>
  </g>
</svg>