<?xml version="1.0" encoding="UTF-8"?>
<svg xmlns="http://www.w3.org/2000/svg" version="1.1" xmlns:xlink="http://www.w3.org/1999/xlink" viewBox="0 0 750 500">
  <!-- Generator: Adobe Illustrator 29.5.1, SVG Export Plug-In . SVG Version: 2.1.0 Build 141)  -->
  <defs>
    <style>
      .st0 {
        stroke: #8fc0e4;
      }

      .st0, .st1, .st2, .st3, .st4, .st5, .st6, .st7, .st8, .st9, .st10, .st11, .st12, .st13, .st14, .st15, .st16, .st17, .st18, .st19, .st20, .st21, .st22, .st23, .st24, .st25, .st26, .st27, .st28, .st29, .st30, .st31, .st32, .st33, .st34, .st35, .st36, .st37, .st38, .st39, .st40, .st41, .st42, .st43, .st44, .st45, .st46, .st47, .st48, .st49, .st50, .st51, .st52, .st53, .st54, .st55, .st56, .st57, .st58, .st59, .st60, .st61, .st62, .st63, .st64, .st65, .st66, .st67, .st68, .st69, .st70, .st71, .st72, .st73, .st74, .st75, .st76, .st77, .st78, .st79, .st80, .st81, .st82, .st83, .st84, .st85, .st86, .st87, .st88, .st89, .st90, .st91, .st92, .st93, .st94, .st95, .st96, .st97, .st98, .st99, .st100, .st101, .st102, .st103, .st104, .st105, .st106, .st107, .st108, .st109, .st110, .st111, .st112, .st113, .st114, .st115, .st116, .st117, .st118, .st119, .st120, .st121, .st122, .st123, .st124, .st125, .st126, .st127, .st128, .st129, .st130, .st131, .st132, .st133, .st134, .st135, .st136, .st137, .st138, .st139, .st140, .st141, .st142, .st143, .st144, .st145, .st146, .st147, .st148, .st149, .st150, .st151, .st152, .st153, .st154, .st155, .st156, .st157, .st158, .st159, .st160, .st161, .st162, .st163, .st164, .st165, .st166, .st167, .st168, .st169, .st170, .st171, .st172, .st173, .st174 {
        fill: none;
      }

      .st0, .st1, .st2, .st3, .st4, .st5, .st6, .st7, .st8, .st9, .st10, .st11, .st12, .st13, .st14, .st15, .st16, .st17, .st18, .st19, .st20, .st21, .st22, .st23, .st24, .st25, .st26, .st27, .st28, .st29, .st30, .st31, .st32, .st33, .st34, .st35, .st36, .st37, .st38, .st39, .st40, .st41, .st42, .st43, .st44, .st45, .st46, .st47, .st48, .st49, .st50, .st51, .st52, .st54, .st55, .st56, .st57, .st58, .st59, .st60, .st61, .st62, .st63, .st64, .st65, .st66, .st67, .st68, .st69, .st70, .st71, .st72, .st73, .st74, .st75, .st76, .st77, .st78, .st79, .st80, .st81, .st82, .st83, .st84, .st85, .st86, .st87, .st88, .st89, .st90, .st91, .st92, .st93, .st94, .st95, .st96, .st97, .st98, .st99, .st100, .st101, .st102, .st103, .st104, .st105, .st106, .st107, .st108, .st109, .st110, .st111, .st112, .st113, .st114, .st115, .st116, .st117, .st118, .st119, .st120, .st121, .st122, .st123, .st124, .st125, .st126, .st127, .st128, .st129, .st130, .st131, .st132, .st133, .st134, .st135, .st136, .st137, .st138, .st139, .st140, .st141, .st142, .st143, .st144, .st145, .st146, .st147, .st148, .st149, .st150, .st151, .st152, .st153, .st154, .st155, .st156, .st157, .st158, .st159, .st160, .st161, .st162, .st163, .st164, .st165, .st166, .st167, .st168, .st169, .st170, .st171, .st172, .st173, .st174 {
        stroke-dasharray: 0 2;
        stroke-linecap: round;
        stroke-miterlimit: 10;
        stroke-width: .5px;
      }

      .st1 {
        stroke: #c59dd1;
      }

      .st2 {
        stroke: #f27fc1;
      }

      .st3 {
        stroke: #c39ed1;
      }

      .st4 {
        stroke: #a9afdb;
      }

      .st5 {
        stroke: #57e5f8;
      }

      .st6 {
        stroke: #64dcf3;
      }

      .st7 {
        stroke: #66dbf2;
      }

      .st8 {
        stroke: #eb84c3;
      }

      .st9 {
        stroke: #55e6f9;
      }

      .st10 {
        stroke: #ce97ce;
      }

      .st11 {
        stroke: #63ddf4;
      }

      .st12 {
        stroke: #90bfe3;
      }

      .st13 {
        stroke: #c19fd2;
      }

      .st14 {
        stroke: #93bde2;
      }

      .st15 {
        stroke: #8dc1e5;
      }

      .st16 {
        stroke: #c69cd0;
      }

      .st17 {
        stroke: #94bde2;
      }

      .st18 {
        stroke: #8cc3e5;
      }

      .st19 {
        stroke: #e08bc7;
      }

      .st20 {
        stroke: #7dccea;
      }

      .st21 {
        stroke: #75d1ed;
      }

      .st22 {
        stroke: #6dd7f0;
      }

      .st23 {
        stroke: #bfa0d3;
      }

      .st24 {
        stroke: #f080c1;
      }

      .st25 {
        stroke: #ed83c3;
      }

      .st26 {
        stroke: #f67dbf;
      }

      .st27 {
        stroke: #87c6e7;
      }

      .st28 {
        stroke: #c0a0d2;
      }

      .st29 {
        stroke: #7ccdeb;
      }

      .st30 {
        stroke: #e28ac7;
      }

      .st31 {
        stroke: #baa4d5;
      }

      .st32 {
        stroke: #9ab9e0;
      }

      .st33 {
        stroke: #91bfe3;
      }

      .st34 {
        stroke: #d493cc;
      }

      .st35 {
        stroke: #df8cc8;
      }

      .st36 {
        stroke: #9bb8e0;
      }

      .st37 {
        stroke: #e787c5;
      }

      .st38 {
        stroke: #afabd9;
      }

      .st39 {
        stroke: #d890ca;
      }

      .st40 {
        stroke: #9cb8df;
      }

      .st41 {
        stroke: #77d0ec;
      }

      .st42 {
        stroke: #c29fd2;
      }

      .st43 {
        stroke: #a7b0db;
      }

      .st44 {
        stroke: #f77cbf;
      }

      .st45 {
        stroke: #d791ca;
      }

      .st46 {
        stroke: #e687c5;
      }

      .st47 {
        stroke: #e389c6;
      }

      .st48 {
        stroke: #51e9fa;
      }

      .st49 {
        stroke: #f97bbe;
      }

      .st50 {
        stroke: #5ce2f6;
      }

      .st51 {
        stroke: #b8a6d6;
      }

      .st52 {
        stroke: #a0b5de;
      }

      .st54 {
        stroke: #84c8e8;
      }

      .st55 {
        stroke: #67daf2;
      }

      .st56 {
        stroke: #5de1f6;
      }

      .st57 {
        stroke: #aeacd9;
      }

      .st58 {
        stroke: #bda2d4;
      }

      .st59 {
        stroke: #b1aad8;
      }

      .st60 {
        stroke: #5fe0f5;
      }

      .st61 {
        stroke: #56e6f8;
      }

      .st62 {
        stroke: #ef81c2;
      }

      .st63 {
        stroke: #88c5e7;
      }

      .st64 {
        stroke: #a2b4dd;
      }

      .st65 {
        stroke: #54e7f9;
      }

      .st66 {
        stroke: #a1b5de;
      }

      .st67 {
        stroke: #89c4e6;
      }

      .st68 {
        stroke: #75d2ed;
      }

      .st69 {
        stroke: #c79bd0;
      }

      .st70 {
        stroke: #97bbe1;
      }

      .st71 {
        stroke: #96bce1;
      }

      .st72 {
        stroke: #bea1d3;
      }

      .st73 {
        stroke: #f180c1;
      }

      .st74 {
        stroke: #d195cd;
      }

      .st75 {
        stroke: #bba4d5;
      }

      .st76 {
        stroke: #f47ec0;
      }

      .st77 {
        stroke: #82c9e9;
      }

      .st78 {
        stroke: #7aceeb;
      }

      .st79 {
        stroke: #a4b3dd;
      }

      .st80 {
        stroke: #5ee0f5;
      }

      .st81 {
        stroke: #f37ec0;
      }

      .st82 {
        stroke: #c49dd1;
      }

      .st83 {
        stroke: #a3b3dd;
      }

      .st84 {
        stroke: #69d9f1;
      }

      .st85 {
        stroke: #68daf2;
      }

      .st86 {
        stroke: #79cfec;
      }

      .st87 {
        stroke: #b0abd8;
      }

      .st88 {
        stroke: #74d2ee;
      }

      .st89 {
        stroke: #d394cc;
      }

      .st90 {
        stroke: #9eb7df;
      }

      .st91 {
        stroke: #76d0ed;
      }

      .st92 {
        stroke: #c89bd0;
      }

      .st93 {
        stroke: #bea2d3;
      }

      .st94 {
        stroke: #9fb6de;
      }

      .st95 {
        stroke: #8bc3e6;
      }

      .st96 {
        stroke: #98bae1;
      }

      .st97 {
        stroke: #6cd7f0;
      }

      .st98 {
        stroke: #62def4;
      }

      .st99 {
        stroke: #b2a9d8;
      }

      .st100 {
        stroke: #52e8fa;
      }

      .st101 {
        stroke: #80cae9;
      }

      .st102 {
        stroke: #ca9acf;
      }

      .st103 {
        stroke: #73d3ee;
      }

      .st104 {
        stroke: #81c9e9;
      }

      .st105 {
        stroke: #6fd5ef;
      }

      .st106 {
        stroke: #59e4f7;
      }

      .st107 {
        stroke: #b5a7d7;
      }

      .st108 {
        stroke: #cd98ce;
      }

      .st109 {
        stroke: #da8fc9;
      }

      .st110 {
        stroke: #b3a9d7;
      }

      .st111 {
        stroke: #cf96cd;
      }

      .st112 {
        stroke: #d98fca;
      }

      .st113 {
        stroke: #5ae3f7;
      }

      .st114 {
        stroke: #a6b1dc;
      }

      .st115 {
        stroke: #6bd8f1;
      }

      .st116 {
        stroke: #b7a6d6;
      }

      .st117 {
        stroke: #de8cc8;
      }

      .st118 {
        stroke: #72d4ee;
      }

      .st119 {
        stroke: #cb99cf;
      }

      .st120 {
        stroke: #5be3f7;
      }

      .st121 {
        stroke: #e588c6;
      }

      .st122 {
        stroke: #78cfec;
      }

      .st123 {
        stroke: #f87bbf;
      }

      .st124 {
        stroke: #b9a5d5;
      }

      .st125 {
        stroke: #b6a7d6;
      }

      .st126 {
        stroke: #abaeda;
      }

      .st127 {
        stroke: #7ecbea;
      }

      .st128 {
        stroke: #71d4ef;
      }

      .st129 {
        stroke: #a5b2dc;
      }

      .st130 {
        stroke: #db8ec9;
      }

      .st131 {
        stroke: #fa7abe;
      }

      .st132 {
        stroke: #aaaeda;
      }

      .st133 {
        stroke: #d692cb;
      }

      .st134 {
        stroke: #8ac4e6;
      }

      .st135 {
        stroke: #e985c4;
      }

      .st136 {
        stroke: #ec83c3;
      }

      .st137 {
        stroke: #83c8e8;
      }

      .st138 {
        stroke: #dd8dc8;
      }

      .st139 {
        stroke: #e18ac7;
      }

      .st140 {
        stroke: #65dcf3;
      }

      .st141 {
        stroke: #ee82c2;
      }

      .st142 {
        stroke: #d691cb;
      }

      .st143 {
        stroke: #70d5ef;
      }

      .st144 {
        stroke: #f57dc0;
      }

      .st145 {
        stroke: #99bae0;
      }

      .st146 {
        stroke: #d096cd;
      }

      .st147 {
        stroke: #b4a8d7;
      }

      .st148 {
        stroke: #8ec1e4;
      }

      .st149 {
        stroke: #53e8f9;
      }

      .st150 {
        stroke: #9db7df;
      }

      .st175 {
        fill: url(#linear-gradient);
      }

      .st151 {
        stroke: #d294cc;
      }

      .st152 {
        stroke: #c99acf;
      }

      .st153 {
        stroke: #95bce2;
      }

      .st154 {
        stroke: #6ad9f1;
      }

      .st155 {
        stroke: #7fcbea;
      }

      .st176 {
        clip-path: url(#clippath);
      }

      .st156 {
        stroke: #e489c6;
      }

      .st157 {
        stroke: #ea85c4;
      }

      .st158 {
        stroke: #85c7e8;
      }

      .st159 {
        stroke: #adacd9;
      }

      .st160 {
        stroke: #acadda;
      }

      .st161 {
        stroke: #92bee3;
      }

      .st162 {
        stroke: #86c6e7;
      }

      .st163 {
        stroke: #60dff5;
      }

      .st164 {
        stroke: #58e5f8;
      }

      .st165 {
        stroke: #8dc2e5;
      }

      .st166 {
        stroke: #e886c4;
      }

      .st167 {
        stroke: #61def4;
      }

      .st168 {
        stroke: #bca3d4;
      }

      .st169 {
        stroke: #7bcdeb;
      }

      .st170 {
        stroke: #d593cb;
      }

      .st171 {
        stroke: #a8b0db;
      }

      .st172 {
        stroke: #cc98ce;
      }

      .st173 {
        stroke: #dc8ec9;
      }

      .st174 {
        stroke: #6ed6f0;
      }
    </style>
    <linearGradient id="linear-gradient" x1="313.69" y1="-211.63" x2="450.42" y2="817.84" gradientTransform="translate(750 500) rotate(-180)" gradientUnits="userSpaceOnUse">
      <stop offset="0" stop-color="#fa7abe"/>
      <stop offset=".02" stop-color="#dc6ba7"/>
      <stop offset=".07" stop-color="#a95280"/>
      <stop offset=".11" stop-color="#7b3c5e"/>
      <stop offset=".16" stop-color="#552941"/>
      <stop offset=".21" stop-color="#361a29"/>
      <stop offset=".25" stop-color="#1e0e17"/>
      <stop offset=".31" stop-color="#0d060a"/>
      <stop offset=".36" stop-color="#030102"/>
      <stop offset=".43" stop-color="#000"/>
      <stop offset=".5" stop-color="#010204"/>
      <stop offset=".57" stop-color="#050910"/>
      <stop offset=".64" stop-color="#0c1426"/>
      <stop offset=".72" stop-color="#152543"/>
      <stop offset=".79" stop-color="#223a69"/>
      <stop offset=".87" stop-color="#315398"/>
      <stop offset=".95" stop-color="#4371ce"/>
      <stop offset="1" stop-color="#5189fa"/>
    </linearGradient>
    <clipPath id="clippath">
      <rect class="st53" width="750" height="500"/>
    </clipPath>
  </defs>
  <g id="BACKGROUND">
    <rect class="st175" width="750" height="500" transform="translate(750 500) rotate(180)"/>
  </g>
  <g id="OBJECTS">
    <g class="st176">
      <g>
        <path class="st48" d="M712.18,566.66c176.23-32.98-44.72-24.94-94.35-80.71-49.64-55.76,183.95-15.41,242.95-42.3,29.5-13.44-33.35-71.31-133.16-104.42-49.91-16.56-109.06-26.93-170.52-22.46-61.46,4.47-125.24,23.77-184.42,66.55-143.32,103.63,64.31-.23,145.38,17.55,122.93,26.97-182.36,64.61-113.65,125.9,35.53,31.69,103.97,78.04,307.77,39.89Z"/>
        <path class="st100" d="M373.13,383.2c-142.72,103.2,63.53.14,144,18.04,122.09,27.04-181.04,64.14-113.19,125.88,16.27,14.81,39.12,32.09,78.42,42.86,28.58,7.73,65.79,12.04,115.24,10.04,33.06-1.29,70.27-4.92,114.76-13.6,175.07-34.15-44.34-25.07-93.68-80.65-49.33-55.64,182.89-15.69,241.49-42.52,29.27-13.46-33.22-71.34-132.68-103.8-49.85-16.27-108.99-26.69-170.13-22.69-61.12,4.22-124.99,23.57-184.24,66.44Z"/>
        <path class="st149" d="M373.49,382.79c-142.11,102.78,62.75.51,142.62,18.54,121.25,27.11-179.73,63.7-112.72,125.86,16.42,15.24,39.18,32.53,78.55,42.79,28.66,7.47,66.01,11.18,115.54,9.21,33.61-1.24,70.18-4.21,114.98-13.3,173.91-35.27-43.96-25.2-93-80.6-49.03-55.52,181.83-15.98,240.03-42.74,29.03-13.47-33.08-71.37-132.19-103.17-49.79-15.98-108.95-26.68-169.73-22.93-60.8,3.75-124.73,23.38-184.07,66.33Z"/>
        <path class="st65" d="M373.74,382.07c-141.51,102.35,61.98.88,141.24,19.03,120.41,27.18-178.44,63.29-112.26,125.85,16.58,15.67,39.25,32.9,78.68,42.72,28.75,7.16,66.22,10.22,115.84,8.39,34.16-1.26,70.08-3.5,115.19-12.99,172.75-36.36-43.58-25.33-92.32-80.54-48.73-55.39,180.84-16.11,238.57-42.96,28.83-13.41-32.95-71.4-131.7-102.55-49.73-15.69-108.89-26.55-169.34-23.16-60.46,3.4-124.47,23.18-183.89,66.22Z"/>
        <path class="st9" d="M373.91,381.04c-140.9,101.93,61.16,1.41,139.86,19.52,119.51,27.5-177.16,62.91-111.8,125.83,16.73,16.11,39.33,33.27,78.81,42.64,28.84,6.85,66.43,9.33,116.14,7.56,34.7-1.23,69.98-2.78,115.41-12.69,171.59-37.42-43.2-25.46-91.65-80.49-48.42-55.27,179.8-16.34,237.1-43.18,28.61-13.41-32.83-71.43-131.21-101.92-49.68-15.4-108.83-26.43-168.95-23.39-60.12,3.04-124.21,22.98-183.72,66.12Z"/>
        <path class="st61" d="M373.99,379.71c-140.3,101.5,60.37,1.83,138.48,20.01,118.65,27.63-175.91,62.56-111.34,125.82,16.89,16.55,39.41,33.64,78.94,42.57,28.93,6.54,66.64,8.44,116.44,6.74,35.25-1.21,69.88-2.07,115.62-12.39,170.43-38.44-42.82-25.58-90.97-80.43-48.12-55.14,178.77-16.57,235.64-43.4,28.39-13.4-32.7-71.46-130.72-101.3-49.63-15.11-108.77-26.31-168.55-23.63-59.79,2.68-123.95,22.79-183.54,66.01Z"/>
        <path class="st5" d="M373.98,378.1c-139.69,101.08,59.58,2.24,137.1,20.51,117.79,27.76-174.67,62.24-110.87,125.8,17.05,16.99,39.49,34.01,79.07,42.5,29.02,6.22,66.86,7.56,116.74,5.91,35.8-1.18,69.76-1.35,115.84-12.08,169.26-39.43-42.44-25.71-90.29-80.38-47.81-55.02,177.73-16.8,234.18-43.62,28.17-13.39-32.58-71.48-130.23-100.67-49.58-14.82-108.71-26.19-168.16-23.86-59.45,2.33-123.69,22.59-183.37,65.9Z"/>
        <path class="st164" d="M373.87,376.21c-139.09,100.65,58.8,2.65,135.72,21,116.94,27.9-173.44,61.94-110.41,125.78,17.22,17.44,39.57,34.38,79.2,42.42,29.12,5.91,67.07,6.68,117.04,5.09,36.35-1.15,69.65-.63,116.05-11.78,168.1-40.39-42.18-25.74-89.62-80.32-47.62-54.79,176.7-17.03,232.72-43.84,27.94-13.38-32.47-71.51-129.74-100.04-49.53-14.53-108.65-26.06-167.77-24.09-59.11,1.97-123.43,22.39-183.2,65.79Z"/>
        <path class="st106" d="M373.68,374.06c-138.48,100.23,58.01,3.06,134.34,21.49,116.08,28.03-172.23,61.67-109.95,125.77,17.38,17.89,39.66,34.74,79.33,42.35,29.21,5.6,67.29,5.79,117.34,4.26,36.9-1.13,69.52.09,116.27-11.47,166.93-41.31-41.81-25.86-88.94-80.27-47.34-54.65,175.66-17.26,231.25-44.06,27.72-13.37-32.35-71.53-129.25-99.42-49.49-14.24-108.59-25.94-167.37-24.33-58.77,1.61-123.17,22.2-183.02,65.68Z"/>
        <path class="st113" d="M373.41,371.65c-137.88,99.8,57.22,3.47,132.95,21.99,115.22,28.16-171.04,61.41-109.49,125.75,17.55,18.34,39.74,35.11,79.46,42.27,29.31,5.29,67.5,4.91,117.65,3.44,37.44-1.1,69.39.82,116.48-11.17,165.76-42.2-41.45-25.97-88.26-80.21-47.05-54.52,174.63-17.49,229.79-44.29,27.5-13.36-32.24-71.55-128.76-98.79-49.45-13.96-108.52-25.82-166.98-24.56-58.43,1.26-122.91,22-182.85,65.57Z"/>
        <path class="st120" d="M373.05,368.99c-137.27,99.38,56.43,3.88,131.57,22.48,114.36,28.3-169.86,61.18-109.02,125.74,17.72,18.8,39.83,35.48,79.59,42.2,29.41,4.97,67.71,4.03,117.95,2.61,37.99-1.07,69.26,1.55,116.7-10.86,164.6-43.06-41.09-26.08-87.59-80.16-46.76-54.38,173.59-17.72,228.33-44.51,27.28-13.35-32.13-71.57-128.27-98.17-49.41-13.67-108.45-25.69-166.59-24.79-58.08.9-122.65,21.81-182.67,65.46Z"/>
        <path class="st50" d="M372.6,366.09c-136.67,98.95,55.64,4.3,130.19,22.97,113.5,28.43-168.7,60.97-108.56,125.72,17.89,19.26,39.92,35.84,79.72,42.13,29.51,4.66,67.93,3.15,118.25,1.79,38.54-1.04,69.12,2.27,116.91-10.56,163.43-43.88-40.72-26.2-86.91-80.1-46.47-54.24,172.56-17.95,226.87-44.73,27.06-13.34-32.03-71.58-127.78-97.54-49.37-13.39-108.39-25.57-166.19-25.03-57.74.54-122.39,21.61-182.5,65.35Z"/>
        <path class="st56" d="M372.08,362.95c-136.06,98.53,54.85,4.71,128.81,23.46,112.64,28.57-167.55,60.78-108.1,125.7,18.06,19.72,40.01,36.21,79.85,42.05,29.61,4.35,68.14,2.27,118.55.96,39.09-1.01,68.97,3,117.12-10.26,162.27-44.68-40.36-26.31-86.24-80.05-46.19-54.1,171.53-18.18,225.4-44.95,26.84-13.33-31.92-71.6-127.29-96.92-49.34-13.1-108.32-25.45-165.8-25.26-57.39.19-122.13,21.41-182.32,65.24Z"/>
        <path class="st56" d="M371.48,359.59c-135.46,98.1,54.06,5.12,127.43,23.96,111.78,28.7-166.42,60.6-107.64,125.69,18.23,20.18,40.1,36.57,79.98,41.98,29.71,4.03,68.36,1.39,118.85.14,39.64-.98,68.82,3.73,117.34-9.95,161.11-45.45-40-26.43-85.56-80-45.9-53.96,170.49-18.41,223.94-45.17,26.62-13.32-31.82-71.61-126.8-96.29-49.3-12.81-108.24-25.32-165.41-25.49-57.05-.17-121.87,21.22-182.15,65.13Z"/>
        <path class="st80" d="M370.79,356.01c-134.85,97.68,53.27,5.53,126.05,24.45,110.92,28.83-165.3,60.45-107.17,125.67,18.4,20.65,40.19,36.93,80.12,41.91,29.81,3.72,68.57.52,119.15-.69,40.19-.96,68.67,4.47,117.55-9.65,159.95-46.18-39.64-26.54-84.88-79.94-45.61-53.83,169.46-18.64,222.48-45.39,26.39-13.31-31.73-71.62-126.31-95.67-49.27-12.53-108.17-25.2-165.01-25.73-56.7-.53-121.61,21.02-181.97,65.03Z"/>
        <path class="st60" d="M370.03,352.24c-134.25,97.25,52.48,5.94,124.67,24.94,110.06,28.97-164.19,60.3-106.71,125.66,18.58,21.12,40.28,37.29,80.25,41.83,29.92,3.4,68.79-.36,119.45-1.51,40.74-.93,68.51,5.2,117.77-9.34,158.79-46.89-39.27-26.66-84.21-79.89-45.32-53.69,168.43-18.88,221.02-45.61,26.17-13.3-31.64-71.62-125.82-95.04-49.25-12.24-108.09-25.08-164.62-25.96-56.35-.88-121.35,20.83-181.8,64.92Z"/>
        <path class="st163" d="M369.2,348.27c-133.64,96.83,51.69,6.35,123.29,25.44,109.2,29.1-163.09,60.18-106.25,125.64,18.75,21.59,40.38,37.65,80.38,41.76,30.02,3.08,69-1.24,119.75-2.34,41.28-.9,68.35,5.94,117.98-9.04,157.63-47.57-38.91-26.77-83.53-79.83-45.04-53.55,167.4-19.11,219.55-45.83,25.95-13.3-31.55-71.63-125.33-94.42-49.22-11.96-108.02-24.95-164.23-26.19-56-1.24-121.09,20.63-181.62,64.81Z"/>
        <path class="st167" d="M368.29,344.13c-133.03,96.4,50.89,6.76,121.91,25.93,108.34,29.23-162.01,60.07-105.79,125.62,18.93,22.07,40.47,38.01,80.51,41.69,30.13,2.77,69.22-2.11,120.05-3.16,41.83-.87,68.18,6.68,118.2-8.73,156.48-48.22-38.55-26.89-82.85-79.78-44.75-53.41,166.36-19.34,218.09-46.05,25.73-13.29-31.46-71.63-124.84-93.79-49.2-11.68-107.94-24.83-163.83-26.43-55.65-1.59-120.83,20.43-181.45,64.7Z"/>
        <path class="st98" d="M367.3,339.83c-132.43,95.98,50.1,7.18,120.53,26.42,107.47,29.37-160.94,59.97-105.32,125.61,19.1,22.54,40.57,38.37,80.64,41.61,30.23,2.45,69.43-2.99,120.35-3.99,42.38-.83,68.01,7.42,118.41-8.43,155.32-48.84-38.18-27-82.18-79.72-44.46-53.28,165.33-19.57,216.63-46.27,25.51-13.28-31.38-71.63-124.35-93.16-49.18-11.39-107.86-24.7-163.44-26.66-55.29-1.95-120.57,20.24-181.27,64.59Z"/>
        <path class="st11" d="M366.21,335.38c-131.63,95.82,49.31,7.59,119.15,26.91,106.61,29.5-159.88,59.89-104.86,125.59,19.28,23.02,40.67,38.72,80.77,41.54,30.34,2.13,69.65-3.86,120.66-4.81,42.93-.8,67.83,8.16,118.63-8.13,154.18-49.44-37.82-27.12-81.5-79.67-44.17-53.14,164.3-19.8,215.17-46.49,25.29-13.27-31.29-71.63-123.86-92.54-49.17-11.11-107.77-24.58-163.04-26.9-54.94-2.3-120.22,20.16-181.1,64.48Z"/>
        <path class="st6" d="M365.08,330.8c-131.02,95.41,48.52,8,117.77,27.41,105.75,29.64-158.83,59.82-104.4,125.58,19.45,23.5,40.77,39.08,80.9,41.47,30.45,1.81,69.86-4.73,120.96-5.64,43.48-.77,67.66,8.91,118.84-7.82,153.03-50.01-37.46-27.24-80.82-79.61-43.88-53,163.27-20.03,213.7-46.71,25.07-13.26-31.22-71.62-123.37-91.91-49.15-10.82-107.69-24.45-162.65-27.13-54.58-2.66-119.96,19.97-180.93,64.37Z"/>
        <path class="st140" d="M363.89,326.1c-130.4,95,47.72,8.41,116.39,27.9,104.89,29.77-157.79,59.76-103.94,125.56,19.63,23.99,40.87,39.43,81.03,41.39,30.56,1.49,70.08-5.6,121.26-6.46,44.03-.74,67.47,9.65,119.06-7.52,151.89-50.56-37.09-27.35-80.15-79.56-43.6-52.87,162.24-20.27,212.24-46.93,24.85-13.25-31.14-71.61-122.88-91.29-49.14-10.54-107.6-24.33-162.26-27.36-54.23-3.01-119.69,19.78-180.75,64.26Z"/>
        <path class="st7" d="M362.63,321.29c-129.79,94.58,46.93,8.82,115,28.39,104.02,29.9-156.76,59.71-103.47,125.55,19.81,24.47,40.97,39.79,81.16,41.32,30.67,1.17,70.29-6.47,121.56-7.29,44.58-.71,67.29,10.4,119.27-7.21,150.75-51.08-36.73-27.47-79.47-79.5-43.31-52.73,161.21-20.5,210.78-47.15,24.64-13.25-31.07-71.6-122.39-90.66-49.13-10.26-107.51-24.2-161.86-27.6-53.87-3.36-119.43,19.59-180.58,64.15Z"/>
        <path class="st55" d="M361.3,316.37c-129.18,94.17,46.14,9.23,113.62,28.88,103.16,30.04-155.75,59.67-103.01,125.53,19.98,24.96,41.09,42.86,81.29,41.25,30.77-1.23,70.51-7.34,121.86-8.11,45.13-.68,67.1,11.15,119.49-6.91,149.61-51.58-36.37-27.58-78.79-79.45-43.02-52.59,160.18-20.73,209.32-47.37,24.42-13.24-31-71.58-121.9-90.04-49.13-9.98-107.42-24.08-161.47-27.83-53.51-3.71-119.17,19.4-180.4,64.05Z"/>
        <path class="st85" d="M359.91,311.34c-128.56,93.76,45.34,9.64,112.24,29.38,102.29,30.17-154.74,59.65-102.55,125.51,20.16,25.44,41.23,43.3,81.42,41.17,30.85-1.63,70.72-8.21,122.16-8.94,45.67-.64,66.91,11.9,119.7-6.6,148.48-52.05-36-27.7-78.12-79.39-42.73-52.46,159.15-20.96,207.85-47.59,24.2-13.23-30.94-71.56-121.41-89.41-49.12-9.69-107.33-23.95-161.08-28.06-53.15-4.06-118.9,19.21-180.23,63.94Z"/>
        <path class="st84" d="M358.45,306.23c-127.95,93.34,44.55,10.06,110.86,29.87,101.43,30.31-153.74,59.63-102.08,125.5,20.34,25.94,41.37,43.73,81.55,41.1,30.94-2.03,70.94-9.08,122.46-9.76,46.22-.61,66.71,12.66,119.92-6.3,147.35-52.5-35.64-27.82-77.44-79.34-42.45-52.32,158.12-21.19,206.39-47.81,23.98-13.22-30.88-71.54-120.92-88.79-49.12-9.41-107.24-23.82-160.68-28.3-52.78-4.42-118.64,19.02-180.05,63.83Z"/>
        <path class="st154" d="M356.94,301.07c-127.34,92.93,43.75,10.47,109.48,30.36,100.56,30.44-152.75,59.62-101.62,125.48,20.52,26.43,41.51,44.16,81.68,41.03,31.02-2.42,71.15-9.95,122.76-10.59,46.77-.58,66.51,13.41,120.13-6,146.23-52.93-35.28-27.93-76.76-79.28-42.16-52.18,157.09-21.43,204.93-48.03,23.76-13.21-30.82-71.51-120.43-88.16-49.12-9.13-107.14-23.7-160.29-28.53-52.42-4.77-118.37,18.83-179.88,63.72Z"/>
        <path class="st115" d="M355.36,295.87c-126.72,92.51,42.96,10.88,108.1,30.86,99.69,30.57-151.77,59.62-101.16,125.47,20.69,26.92,41.65,44.59,81.81,40.95,31.11-2.82,71.37-10.82,123.06-11.41,47.32-.54,66.31,14.17,120.34-5.69,145.11-53.34-34.92-28.05-76.09-79.23-41.87-52.05,156.06-21.66,203.47-48.25,23.54-13.21-30.77-71.48-119.94-87.53-49.13-8.84-107.04-23.57-159.9-28.76-52.05-5.11-118.11,18.64-179.7,63.61Z"/>
        <path class="st97" d="M353.72,290.64c-126.11,92.1,42.16,11.29,106.72,31.35,98.83,30.71-150.79,59.63-100.7,125.45,20.87,27.42,41.8,45.01,81.94,40.88,31.19-3.21,71.58-12.85,123.36-12.24,47.87.56,66.11,14.93,120.56-5.39,143.99-53.72-34.55-28.17-75.41-79.17-41.58-51.91,155.04-21.89,202-48.47,23.33-13.2-30.71-71.45-119.45-86.91-49.14-8.56-106.94-23.44-159.5-29-51.69-5.46-117.84,18.45-179.53,63.5Z"/>
        <path class="st22" d="M352.03,285.39c-125.5,91.68,41.37,11.7,105.34,31.84,97.96,30.84-149.83,59.65-100.23,125.43,21.04,27.91,41.95,45.43,82.08,40.81,31.27-3.6,71.8-13.73,123.67-13.07,48.42.62,65.9,15.69,120.77-5.08,142.88-54.09-34.19-28.28-74.73-79.12-41.3-51.78,154.01-22.13,200.54-48.69,23.11-13.19-30.67-71.41-118.96-86.28-49.15-8.28-106.84-23.31-159.11-29.23-51.32-5.81-117.58,18.26-179.35,63.39Z"/>
        <path class="st174" d="M350.29,280.5c-124.89,91.27,40.57,12.11,103.96,32.33,97.09,30.98-148.87,59.68-99.77,125.42,21.22,28.41,41.82,42.56,82.21,40.73,31.58-1.42,72.01-14.62,123.97-13.89,48.97.69,65.69,16.45,120.99-4.78,141.77-54.43-33.82-28.4-74.06-79.06-41.01-51.64,152.98-22.36,199.08-48.91,22.89-13.19-30.62-71.37-118.47-85.66-49.16-7.99-106.73-23.18-158.72-29.46-50.95-6.16-117.32,18.07-179.18,63.28Z"/>
        <path class="st105" d="M348.48,275.29c-124.28,90.85,39.77,12.52,102.58,32.83,96.22,31.11-147.92,59.71-99.31,125.4,21.39,28.91,41.93,42.9,82.34,40.66,31.69-1.75,72.23-15.5,124.27-14.72,49.51.75,65.48,17.22,121.2-4.47,140.67-54.76-33.46-28.52-73.38-79.01-40.72-51.5,151.95-22.59,197.62-49.13,22.67-13.18-30.58-71.33-117.98-85.03-49.17-7.71-106.63-23.05-158.32-29.7-50.58-6.5-117.05,17.88-179,63.17Z"/>
        <path class="st143" d="M346.63,270.09c-123.66,90.44,38.97,12.93,101.2,33.32,95.35,31.24-146.98,59.75-98.85,125.39,21.57,29.41,42.04,43.23,82.47,40.59,31.81-2.08,72.45-16.38,124.57-15.54,50.06.81,65.26,17.98,121.42-4.17,139.57-55.06-33.1-28.64-72.7-78.95-40.43-51.37,150.93-22.83,196.15-49.35,22.46-13.17-30.54-71.28-117.49-84.41-49.19-7.43-106.52-22.92-157.93-29.93-50.2-6.85-116.79,17.69-178.83,63.06Z"/>
        <path class="st128" d="M344.72,264.92c-123.05,90.02,38.18,13.34,99.82,33.81,94.48,31.38-146.04,59.79-98.38,125.37,21.74,29.92,42.15,43.57,82.6,40.51,31.93-2.41,72.66-17.26,124.87-16.37,50.61.87,65.05,18.75,121.63-3.87,138.47-55.35-32.73-28.75-72.03-78.9-40.15-51.23,149.9-23.06,194.69-49.57,22.24-13.17-30.5-71.23-117-83.78-49.21-7.14-106.41-22.79-157.54-30.16-49.83-7.19-116.52,17.5-178.65,62.96Z"/>
        <path class="st118" d="M342.77,259.79c-122.44,89.61,37.38,13.75,98.43,34.31,93.61,31.51-145.11,59.85-97.92,125.35,21.92,30.42,42.26,43.91,82.73,40.44,32.05-2.75,72.88-18.14,125.17-17.19,51.16.93,64.83,19.52,121.85-3.56,137.38-55.62-32.37-28.87-71.35-78.84-39.86-51.1,148.88-23.29,193.23-49.79,22.03-13.16-30.47-71.17-116.51-83.16-49.24-6.86-106.29-22.66-157.14-30.4-49.45-7.53-116.26,17.31-178.48,62.85Z"/>
        <path class="st103" d="M340.76,254.71c-121.83,89.19,36.58,14.16,97.05,34.8,92.74,31.65-144.19,59.91-97.46,125.34,22.09,30.93,42.37,44.24,82.86,40.37,32.16-3.08,73.09-19.02,125.47-18.02,51.71.99,69.67,30.08,122.06-3.26,144.02-30.9-32.01-28.99-70.67-78.79-39.57-50.96,147.85-23.53,191.77-50.01,21.81-13.15-30.44-71.11-116.02-82.53-49.26-6.58-106.18-22.52-156.75-30.63-49.08-7.87-116,17.12-178.31,62.74Z"/>
        <path class="st88" d="M338.71,249.69c-121.22,88.77,35.78,14.57,95.67,35.29,91.87,31.78-143.28,59.97-97,125.32,22.26,31.44,42.48,44.57,82.99,40.29,32.28-3.41,73.31-19.9,125.77-18.84,52.25,1.06,69.65,31.1,122.28-2.95,143.1-30.84-31.64-29.11-70-78.73-39.28-50.83,146.83-23.76,190.31-50.23,21.59-13.15-30.41-71.04-115.54-81.91-49.29-6.29-106.06-22.39-156.36-30.86-48.7-8.21-115.73,16.93-178.13,62.63Z"/>
        <path class="st68" d="M336.61,244.75c-120.61,88.36,34.98,14.98,94.29,35.78,91,31.91-142.37,60.04-96.53,125.31,22.43,31.95,42.59,44.9,83.12,40.22,32.4-3.75,73.53-20.78,126.07-19.67,52.8,1.12,69.63,32.12,122.49-2.65,142.18-30.78-31.28-29.22-69.32-78.68-38.99-50.69,145.8-24,188.84-50.45,21.38-13.14-30.39-70.97-115.05-81.28-49.32-6.01-105.94-22.25-155.96-31.1-48.32-8.55-115.47,16.74-177.96,62.52Z"/>
        <path class="st21" d="M334.47,239.89c-119.99,87.94,34.18,15.39,92.91,36.28,90.13,32.05-141.46,60.11-96.07,125.29,22.6,32.46,42.7,45.23,83.25,40.15,32.52-4.08,73.74-21.65,126.37-20.49,53.35,1.18,69.61,33.14,122.71-2.34,141.26-30.72-30.92-29.34-68.65-78.63-38.71-50.56,144.78-24.23,187.38-50.68,21.16-13.14-30.37-70.9-114.56-80.65-49.36-5.72-105.82-22.11-155.57-31.33-47.94-8.88-115.21,16.55-177.78,62.41Z"/>
        <path class="st91" d="M332.29,235.14c-119.38,87.52,33.38,15.8,91.53,36.77,89.25,32.18-140.57,60.19-95.61,125.27,22.77,32.97,42.82,45.56,83.38,40.07,32.64-4.42,73.96-22.53,126.68-21.32,53.9,1.24,69.59,34.16,122.92-2.04,140.34-30.66-30.55-29.46-67.97-78.57-38.42-50.43,143.75-24.47,185.92-50.9,20.95-13.13-30.35-70.82-114.07-80.03-49.39-5.43-105.69-21.98-155.18-31.56-47.56-9.22-114.94,16.36-177.61,62.3Z"/>
        <path class="st41" d="M330.06,230.49c-118.77,87.11,32.58,16.21,90.15,37.26,88.38,32.31-139.67,60.28-95.15,125.26,22.94,33.48,42.93,45.89,83.51,40,32.76-4.76,74.18-23.4,126.98-22.14,54.45,1.3,69.58,35.18,123.14-1.74,139.42-30.6-30.19-29.58-67.29-78.52-38.13-50.29,142.73-24.71,184.46-51.12,20.74-13.12-30.33-70.73-113.58-79.4-49.43-5.15-105.57-21.84-154.78-31.8-47.17-9.55-114.68,16.17-177.43,62.19Z"/>
        <path class="st122" d="M327.79,225.96c-118.16,86.69,31.77,16.62,88.77,37.76,87.5,32.44-138.79,60.37-94.68,125.24,23.11,34,43.04,46.22,83.64,39.93,32.88-5.09,74.39-24.27,127.28-22.97,54.99,1.36,69.56,36.2,123.35-1.43,138.5-30.54-29.82-29.7-66.62-78.46-37.84-50.16,141.71-24.94,182.99-51.34,20.52-13.12-30.32-70.64-113.09-78.78-49.47-4.86-105.44-21.7-154.39-32.03-46.79-9.88-114.41,15.98-177.26,62.08Z"/>
        <path class="st86" d="M325.49,221.56c-117.55,86.27,30.97,17.03,87.39,38.25,86.63,32.58-137.91,60.46-94.22,125.23,23.28,34.51,43.15,46.54,83.77,39.85,33-5.43,74.61-25.14,127.58-23.79,55.54,1.41,69.54,37.22,123.57-1.13,137.58-30.48-29.46-29.82-65.94-78.41-37.56-50.02,140.68-25.18,181.53-51.56,20.31-13.11-30.31-70.55-112.6-78.15-49.52-4.57-105.31-21.55-154-32.27-46.4-10.21-114.15,15.79-177.08,61.97Z"/>
        <path class="st78" d="M323.15,217.31c-116.94,85.85,30.17,17.44,86.01,38.74,85.75,32.71-137.03,60.56-93.76,125.21,23.44,35.03,43.27,46.86,83.9,39.78,33.12-5.77,74.83-26.01,127.88-24.62,56.09,1.47,69.52,38.24,123.78-.82,136.66-30.42-29.1-29.94-65.26-78.35-37.27-49.89,139.66-25.42,180.07-51.78,20.09-13.11-30.3-70.45-112.11-77.53-49.56-4.29-105.18-21.41-153.6-32.5-46.01-10.54-113.89,15.6-176.91,61.87Z"/>
        <path class="st169" d="M320.77,213.22c-116.33,85.44,29.36,17.85,84.63,39.23,84.87,32.84-136.16,60.66-93.3,125.19,23.61,35.55,43.38,47.19,84.04,39.71,33.24-6.12,75.04-26.88,128.18-25.44,56.64,1.53,69.5,39.26,123.99-.52,135.74-30.36-28.73-30.06-64.59-78.3-36.98-49.76,138.64-25.65,178.61-52,19.88-13.11-30.3-70.35-111.62-76.9-49.61-4-105.04-21.27-153.21-32.73-45.62-10.86-113.62,15.41-176.73,61.76Z"/>
        <path class="st29" d="M318.36,209.3c-115.72,85.02,28.56,18.26,83.25,39.73,83.99,32.97-135.29,60.77-92.83,125.18,23.77,36.07,43.49,47.51,84.17,39.63,33.36-6.46,75.26-27.75,128.48-26.27,57.18,1.59,69.48,40.28,124.21-.21,134.82-30.3-28.37-30.18-63.91-78.24-36.69-49.62,137.62-25.89,177.14-52.22,19.67-13.1-30.3-70.24-111.13-76.28-49.67-3.71-104.9-21.12-152.82-32.97-45.23-11.18-113.36,15.22-176.56,61.65Z"/>
        <path class="st20" d="M315.92,205.35c-115.11,84.6,27.75,18.67,81.86,40.22,83.12,33.11-145.02,69.22-92.37,125.16,17.17,40.21,43.61,47.82,84.3,39.56,33.48-6.8,75.47-28.61,128.78-27.09,57.73,1.65,69.46,41.3,124.42.09,133.9-30.24-28-30.29-63.23-78.19-36.4-49.49,136.6-26.13,175.68-52.44,19.46-13.1-30.3-70.13-110.64-75.65-49.72-3.42-104.77-20.97-152.42-33.2-44.84-11.5-113.1,15.02-176.38,61.54Z"/>
        <path class="st127" d="M313.44,201.78c-114.5,84.18,26.95,19.08,80.48,40.71,82.24,33.24-144.21,69.32-91.91,125.15,17.19,40.77,43.72,48.14,84.43,39.49,33.6-7.15,75.69-29.48,129.08-27.92,58.28,1.71,69.44,42.32,124.64.39,132.98-30.18-27.64-30.41-62.56-78.13-36.12-49.36,135.58-26.37,174.22-52.66,19.25-13.09-30.3-70.01-110.15-75.03-49.78-3.13-104.62-20.82-152.03-33.43-44.45-11.82-112.83,14.83-176.21,61.43Z"/>
        <path class="st155" d="M310.93,198.42c-113.89,83.76,26.14,19.48,79.1,41.2,81.36,33.37-143.4,69.42-91.45,125.13,17.22,41.33,43.83,48.46,84.56,39.41,33.72-7.49,75.91-30.35,129.38-28.74,58.83,1.76,69.42,43.34,124.85.7,132.06-30.12-27.27-30.53-61.88-78.08-35.83-49.22,134.56-26.61,172.76-52.88,19.03-13.09-30.31-69.88-109.66-74.4-49.84-2.84-104.48-20.67-151.64-33.67-44.05-12.14-112.57,14.64-176.04,61.32Z"/>
        <path class="st101" d="M308.4,195.27c-113.28,83.34,25.34,19.89,77.72,41.7,80.47,33.5-142.59,69.52-90.98,125.11,17.24,41.89,43.95,48.77,84.69,39.34,33.84-7.84,76.12-31.21,129.69-29.57,59.38,1.82,69.4,44.36,125.07,1,131.14-30.06-26.91-30.65-61.2-78.02-35.54-49.09,133.54-26.85,171.29-53.1,18.82-13.09-30.32-69.75-109.17-73.77-49.9-2.55-104.34-20.52-151.24-33.9-43.66-12.45-112.3,14.45-175.86,61.21Z"/>
        <path class="st104" d="M305.84,192.35c-112.67,82.93,24.53,20.3,76.34,42.19,79.59,33.63-141.78,69.62-90.52,125.1,17.26,42.45,44.06,49.09,84.82,39.27,33.96-8.19,76.34-32.07,129.99-30.39,59.92,1.88,69.38,45.38,125.28,1.31,130.22-30-26.54-30.78-60.53-77.97-35.25-48.96,132.52-27.09,169.83-53.32,18.61-13.09-30.33-69.62-108.68-73.15-49.97-2.25-104.19-20.36-150.85-34.13-43.26-12.77-112.04,14.26-175.69,61.1Z"/>
        <path class="st77" d="M303.3,189.67c-112.06,82.51,23.72,20.71,74.96,42.68,78.71,33.76-140.96,69.73-90.06,125.08,17.28,43.02,44.17,49.4,84.95,39.19,34.08-8.53,76.56-32.94,130.29-31.22,60.47,1.93,69.36,46.4,125.5,1.61,129.3-29.94-26.18-30.9-59.85-77.91-34.96-48.83,131.5-27.33,168.37-53.54,18.4-13.08-32.09-55.86-108.19-72.52-49.6,6.85-104.04-20.21-150.46-34.37-42.86-13.08-111.78,14.07-175.51,60.99Z"/>
        <path class="st137" d="M300.68,187.24c-111.45,82.09,22.91,21.11,73.58,43.18,77.83,33.89-140.15,69.83-89.59,125.07,17.31,43.58,44.28,49.71,85.08,39.12,34.2-8.88,76.77-33.8,130.59-32.04,61.02,1.99,69.34,47.42,125.71,1.92,128.38-29.88-25.82-31.02-59.17-77.86-34.68-48.69,130.49-27.57,166.91-53.76,18.19-13.08-32.06-55.56-107.7-71.9-49.59,7.31-103.89-20.05-150.06-34.6-42.46-13.38-111.51,13.88-175.34,60.88Z"/>
        <path class="st54" d="M298.05,185.07c-110.85,81.67,22.1,21.52,72.2,43.67,76.94,34.02-139.34,69.93-89.13,125.05,17.33,44.14,44.4,50.02,85.21,39.04,34.32-9.23,76.99-34.66,130.89-32.87,61.57,2.05,69.32,48.44,125.93,2.22,127.46-29.83-25.45-31.14-58.5-77.8-34.39-48.56,129.47-27.81,165.44-53.98,17.98-13.08-32.04-55.25-107.21-71.27-49.59,7.77-103.74-19.89-149.67-34.83-42.06-13.69-111.25,13.69-175.16,60.78Z"/>
        <path class="st158" d="M295.39,183.17c-110.24,81.25,21.29,21.93,70.82,44.16,76.06,34.15-138.53,70.03-88.67,125.03,17.35,44.7,44.51,50.33,85.34,38.97,34.44-9.58,77.2-35.52,131.19-33.69,62.12,2.1,69.31,49.46,126.14,2.52,126.54-29.77-25.09-31.26-57.82-77.75-34.1-48.43,128.45-28.06,163.98-54.2,17.77-13.08-32.01-54.95-106.72-70.65-49.58,8.23-103.58-19.72-149.28-35.07-41.66-13.99-110.99,13.5-174.99,60.67Z"/>
        <path class="st162" d="M292.72,181.56c-109.63,80.83,20.48,22.33,69.44,44.65,75.17,34.27-137.72,70.13-88.21,125.02,17.37,45.26,44.62,50.64,85.47,38.9,34.56-9.94,77.42-36.38,131.49-34.52,62.66,2.16,69.29,50.48,126.36,2.83,125.62-29.71-24.72-31.38-57.14-77.69-33.81-48.3,127.44-28.3,162.52-54.42,17.56-13.08-31.99-54.65-106.23-70.02-49.58,8.69-103.42-19.56-148.88-35.3-41.26-14.29-110.72,13.31-174.81,60.56Z"/>
        <path class="st27" d="M290.02,180.25c-109.02,80.41,19.67,22.74,68.06,45.15,74.28,34.4-136.9,70.23-87.74,125,17.4,45.82,44.73,50.95,85.6,38.82,34.68-10.29,77.64-37.24,131.79-35.34,63.21,2.21,69.27,51.5,126.57,3.13,124.7-29.65-24.36-31.5-56.47-77.64-33.52-48.17,126.42-28.54,161.06-54.64,17.35-13.08-31.96-54.34-105.74-69.4-49.57,9.15-103.27-19.39-148.49-35.53-40.86-14.59-110.46,13.11-174.64,60.45Z"/>
        <path class="st63" d="M287.31,179.24c-108.41,79.99,18.85,23.14,66.68,45.64,73.39,34.53-136.09,70.33-87.28,124.99,17.42,46.38,44.84,51.26,85.73,38.75,34.8-10.64,77.85-38.1,132.09-36.17,63.76,2.27,69.25,52.53,126.79,3.44,123.78-29.59-23.99-31.62-55.79-77.58-33.24-48.04,125.4-28.79,159.59-54.86,17.15-13.08-31.94-54.04-105.25-68.77-49.56,9.61-103.11-19.22-148.1-35.77-40.46-14.88-110.2,12.92-174.46,60.34Z"/>
        <path class="st67" d="M284.58,178.56c-107.8,79.57,18.04,23.55,65.29,46.13,72.5,34.65-135.28,70.43-86.82,124.97,17.44,46.95,44.96,51.56,85.87,38.68,34.92-11,78.07-38.96,132.39-37,64.31,2.32,69.23,53.55,127,3.74,122.86-29.53-23.62-31.74-55.11-77.53-32.95-47.9,124.39-29.03,158.13-55.08,16.94-13.08-31.91-53.74-104.76-68.14-49.56,10.07-102.94-19.05-147.7-36-40.05-15.17-109.93,12.73-174.29,60.23Z"/>
        <path class="st134" d="M281.84,178.2c-107.19,79.15,17.22,23.95,63.91,46.63,71.61,34.78-134.47,70.53-86.36,124.95,17.46,47.51,45.07,51.87,86,38.6,35.04-11.35,78.28-39.81,132.7-37.82,64.86,2.38,69.21,54.57,127.21,4.05,121.94-29.47-23.26-31.87-54.44-77.47-32.66-47.77,123.37-29.28,156.67-55.3,16.73-13.08-31.89-53.44-104.27-67.52-49.55,10.53-102.78-18.88-147.31-36.24-39.65-15.46-109.67,12.54-174.11,60.12Z"/>
        <path class="st95" d="M279.08,178.19c-106.59,78.72,16.41,24.35,62.53,47.12,70.72,34.91-133.66,70.63-85.89,124.94,17.49,48.07,45.18,52.17,86.13,38.53,35.16-11.71,78.5-40.67,133-38.65,65.4,2.43,69.19,55.59,127.43,4.35,121.02-29.41-22.89-31.99-53.76-77.42-32.37-47.64,122.36-29.53,155.21-55.52,16.52-13.08-31.86-53.13-103.78-66.89-49.55,10.99-102.62-18.7-146.92-36.47-39.24-15.74-109.41,12.35-173.94,60.01Z"/>
        <path class="st18" d="M276.32,178.54c-105.98,78.3,15.59,24.76,61.15,47.61,69.83,35.03-132.85,70.73-85.43,124.92,17.51,48.63,45.29,52.47,86.26,38.46,35.27-12.07,78.72-41.53,133.3-39.47,65.95,2.49,69.17,56.61,127.64,4.65,120.1-29.35-22.53-32.11-53.08-77.36-32.08-47.51,121.35-29.77,153.74-55.74,16.32-13.08-31.84-52.83-103.29-66.27-49.54,11.45-102.45-18.52-146.52-36.7-38.84-16.02-109.14,12.16-173.77,59.9Z"/>
        <path class="st165" d="M273.08,179.42c-105.37,77.88,14.78,25.16,59.77,48.1,68.94,35.15-132.03,70.83-84.97,124.91,17.53,49.19,45.4,52.77,86.39,38.38,35.39-12.42,78.93-42.38,133.6-40.3,66.5,2.54,69.15,57.63,127.86,4.96,119.18-29.29-22.16-32.23-52.41-77.31-31.79-47.38,120.33-30.02,152.28-55.96,16.11-13.08-31.81-52.53-102.8-65.64-49.53,11.9-102.28-18.34-146.13-36.94-38.43-16.3-108.88,11.97-173.59,59.79Z"/>
        <path class="st15" d="M265,182.16c-104.76,77.46,13.96,25.56,58.39,48.6,68.04,35.28-131.22,70.93-84.51,124.89,17.56,49.75,45.51,53.07,86.52,38.31,35.51-12.78,79.15-43.24,133.9-41.12,67.05,2.59,69.13,58.65,128.07,5.26,118.26-29.23-21.8-32.36-51.73-77.25-31.5-47.25,119.32-30.27,150.82-56.18,15.91-13.08-31.79-52.22-102.31-65.02-49.53,12.36-102.12-18.15-145.74-37.17-38.03-16.58-108.62,11.77-173.42,59.69Z"/>
        <path class="st148" d="M257.08,184.71c-104.16,77.04,13.14,25.96,57.01,49.09,67.15,35.4-130.41,71.03-84.04,124.87,17.58,50.31,45.62,53.37,86.65,38.24,35.62-13.14,79.33-42.68,134.2-41.95,67.64.9,69.11,59.67,128.29,5.57,117.34-29.17-21.43-32.48-51.05-77.2-31.22-47.12,118.31-30.52,149.36-56.4,15.7-13.09-31.76-51.92-101.82-64.39-49.52,12.82-101.95-17.96-145.34-37.4-37.62-16.85-108.35,11.58-173.24,59.58Z"/>
        <path class="st0" d="M249.3,187.07c-103.55,76.62,12.32,26.36,55.63,49.58,66.25,35.52-129.6,71.13-83.58,124.86,17.6,50.88,45.72,53.67,86.78,38.16,35.74-13.5,79.54-43.53,134.5-42.77,68.19.94,69.09,60.69,128.5,5.87,116.42-29.11-21.06-32.6-50.38-77.15-30.93-46.99,117.29-30.77,147.9-56.62,15.5-13.09-31.74-51.62-101.33-63.77-49.51,13.28-101.78-17.77-144.95-37.64-37.21-17.12-108.09,11.39-173.07,59.47Z"/>
        <path class="st12" d="M241.68,189.24c-102.94,76.2,11.5,26.76,54.25,50.08,65.35,35.64-128.79,71.23-83.12,124.84,17.62,51.44,45.83,53.97,86.91,38.09,35.86-13.86,79.76-44.39,134.8-43.6,68.74.99,69.07,61.71,128.72,6.18,115.5-29.05-20.7-32.73-49.7-77.09-30.64-46.86,116.28-31.03,146.43-56.84,15.29-13.09-31.71-51.32-100.84-63.14-49.51,13.74-101.6-17.58-144.56-37.87-36.81-17.39-107.83,11.2-172.89,59.36Z"/>
        <path class="st33" d="M234.2,191.23c-102.33,75.77,10.68,27.16,52.87,50.57,64.45,35.76-127.97,71.33-82.66,124.83,17.65,52,45.94,54.27,87.04,38.02,35.97-14.22,79.97-45.24,135.1-44.42,69.29,1.03,69.06,62.73,128.93,6.48,114.58-28.99-20.33-32.85-49.03-77.04-30.35-46.73,115.27-31.28,144.97-57.06,15.09-13.1-31.69-51.01-100.35-62.52-49.5,14.2-101.43-17.38-144.16-38.1-36.4-17.65-107.56,11.01-172.72,59.25Z"/>
        <path class="st161" d="M226.87,193.04c-101.73,75.35,9.86,27.56,51.49,51.06,63.55,35.88-127.16,71.43-82.19,124.81,17.67,52.56,46.05,54.57,87.17,37.94,36.09-14.59,80.19-46.1,135.4-45.25,69.84,1.08,69.04,63.75,129.15,6.78,113.66-28.93-19.97-32.98-48.35-76.98-30.06-46.61,114.26-31.54,143.51-57.29,14.88-13.1-31.66-50.71-99.86-61.89-49.5,14.66-101.26-17.18-143.77-38.34-35.99-17.91-107.3,10.82-172.54,59.14Z"/>
        <path class="st14" d="M219.68,194.67c-101.12,74.93,9.03,27.96,50.11,51.55,62.65,35.99-126.35,71.53-81.73,124.79,17.69,53.12,46.15,54.86,87.3,37.87,36.2-14.95,80.4-46.95,135.71-46.07,70.39,1.12,69.02,64.77,129.36,7.09,112.74-28.87-19.6-33.1-47.67-76.93-29.77-46.48,113.25-31.79,142.05-57.51,14.68-13.11-31.64-50.41-99.37-61.26-49.49,15.12-101.08-16.98-143.38-38.57-35.59-18.17-107.04,10.62-172.37,59.03Z"/>
        <path class="st17" d="M212.64,196.13c-100.51,74.51,8.21,28.36,48.72,52.05,61.75,36.11-125.54,71.63-81.27,124.78,17.71,53.68,46.26,55.16,87.43,37.8,36.32-15.31,80.62-47.81,136.01-46.9,70.94,1.17,69,65.79,129.58,7.39,111.82-28.81-19.23-33.22-47-76.87-29.48-46.35,112.24-32.05,140.58-57.73,14.48-13.12-31.62-50.1-98.88-60.64-49.48,15.58-100.91-16.78-142.98-38.8-35.18-18.42-106.78,10.43-172.19,58.92Z"/>
        <path class="st153" d="M205.75,197.42c-99.91,74.08,7.38,28.75,47.34,52.54,60.85,36.22-124.73,71.73-80.81,124.76,17.74,54.24,46.37,55.45,87.56,37.72,36.43-15.68,80.83-48.66,136.31-47.72,71.49,1.21,68.98,66.81,129.79,7.7,110.9-28.75-18.87-33.35-46.32-76.82-29.19-46.22,111.23-32.31,139.12-57.95,14.28-13.12-31.59-49.8-98.4-60.01-49.48,16.04-100.74-16.57-142.59-39.04-34.77-18.67-106.51,10.24-172.02,58.81Z"/>
        <path class="st71" d="M198.99,198.53c-99.3,73.66,6.56,29.15,45.96,53.03,59.94,36.33-123.92,71.83-80.34,124.75,17.76,54.81,46.47,55.75,87.7,37.65,36.55-16.04,81.05-49.52,136.61-48.55,72.03,1.26,68.96,67.83,130.01,8,109.98-28.69-18.5-33.47-45.64-76.76-28.9-46.09,110.22-32.57,137.66-58.17,14.07-13.13-31.57-49.5-97.91-59.39-49.47,16.5-100.56-16.36-142.19-39.27-34.37-18.91-106.25,10.05-171.84,58.7Z"/>
        <path class="st70" d="M192.76,199.49c-98.69,73.24,5.73,29.54,44.58,53.52,59.04,36.45-123.1,71.93-79.88,124.73,17.78,55.37,46.58,56.04,87.83,37.58,36.66-16.41,81.26-50.37,136.91-49.37,72.58,1.31,68.94,68.85,130.22,8.31,109.06-28.63-18.13-33.6-44.97-76.71-28.61-45.96,109.21-32.83,136.2-58.39,13.87-13.14-31.54-49.19-97.42-58.76-49.47,16.95-100.39-16.14-141.8-39.5-33.96-19.16-105.99,9.86-171.67,58.6Z"/>
        <path class="st96" d="M186.75,200.27c-98.09,72.81,4.9,29.93,43.2,54.02,58.13,36.55-122.29,72.03-79.42,124.71,17.8,55.93,46.68,56.33,87.96,37.5,36.77-16.77,81.48-51.23,137.21-50.2,73.13,1.35,68.92,69.87,130.44,8.61,108.14-28.57-17.76-33.72-44.29-76.65-28.32-45.84,108.2-33.09,134.73-58.61,13.67-13.15-31.52-48.89-96.93-58.14-49.46,17.41-100.21-15.92-141.41-39.74-33.56-19.4-105.72,9.66-171.49,58.49Z"/>
        <path class="st145" d="M180.88,200.9c-97.48,72.39,4.07,30.33,41.82,54.51,57.23,36.66-121.48,72.13-78.96,124.7,17.83,56.49,46.78,56.62,88.09,37.43,36.88-17.14,81.69-52.08,137.51-51.02,73.68,1.4,68.9,70.89,130.65,8.91,107.22-28.51-17.4-33.85-43.61-76.6-28.03-45.71,107.19-33.35,133.27-58.83,13.47-13.16-31.49-48.59-96.44-57.51-49.45,17.87-100.03-15.7-141.01-39.97-33.15-19.63-105.46,9.47-171.32,58.38Z"/>
        <path class="st32" d="M175.15,201.38c-96.87,71.97,3.24,30.72,40.44,55,56.32,36.77-120.67,72.23-78.49,124.68,17.85,57.05,46.89,56.92,88.22,37.36,37-17.51,81.91-52.94,137.81-51.85,74.23,1.45,68.88,71.91,130.86,9.22,106.3-28.45-17.03-33.98-42.94-76.54-27.74-45.58,106.18-33.62,131.81-59.05,13.27-13.17-31.47-48.29-95.95-56.89-49.45,18.33-99.86-15.47-140.62-40.2-32.75-19.87-105.2,9.28-171.15,58.27Z"/>
        <path class="st36" d="M169.54,201.69c-96.27,71.54,2.41,31.11,39.06,55.5,55.41,36.87-119.86,72.33-78.03,124.67,17.87,57.61,46.99,57.21,88.35,37.28,37.11-17.88,82.12-53.79,138.11-52.67,74.78,1.49,68.86,72.93,131.08,9.52,105.38-28.4-16.66-34.1-42.26-76.49-27.45-45.46,105.17-33.88,130.35-59.27,13.07-13.18-31.44-47.98-95.46-56.26-49.44,18.79-99.68-15.25-140.23-40.44-32.34-20.1-104.94,9.09-170.97,58.16Z"/>
        <path class="st40" d="M164.08,201.86c-95.66,71.12,1.58,31.5,37.68,55.99,54.5,36.98-119.04,72.43-77.57,124.65,17.9,58.17,47.09,57.5,88.48,37.21,37.22-18.24,82.34-54.65,138.41-53.5,75.33,1.54,68.84,73.95,131.29,9.83,104.46-28.34-16.29-34.23-41.58-76.43-27.16-45.33,104.16-34.15,128.88-59.49,12.87-13.19-31.42-47.68-94.97-55.63-49.44,19.25-99.51-15.01-139.83-40.67-31.94-20.32-104.67,8.89-170.8,58.05Z"/>
        <path class="st150" d="M158.74,201.88c-95.06,70.69.74,31.88,36.3,56.48,53.59,37.08-118.23,72.53-77.1,124.63,17.92,58.74,47.2,57.79,88.61,37.14,37.33-18.61,82.55-55.5,138.72-54.32,75.88,1.59,68.82,74.97,131.51,10.13,103.54-28.28-15.92-34.36-40.91-76.38-26.87-45.2,103.16-34.42,127.42-59.71,12.67-13.2-31.39-47.38-94.48-55.01-49.43,19.71-99.34-14.78-139.44-40.91-31.54-20.55-104.41,8.7-170.62,57.94Z"/>
        <path class="st90" d="M153.53,201.76c-94.45,70.27-.09,32.27,34.92,56.97,52.68,37.18-117.42,72.63-76.64,124.62,17.94,59.3,47.3,58.08,88.74,37.06,37.44-18.98,82.77-56.35,139.02-55.15,76.43,1.64,68.8,75.99,131.72,10.43,102.62-28.22-15.56-34.48-40.23-76.32-26.58-45.08,102.15-34.69,125.96-59.93,12.47-13.22-31.37-47.07-93.99-54.38-49.42,20.17-99.16-14.54-139.05-41.14-31.14-20.77-104.15,8.51-170.45,57.83Z"/>
        <path class="st94" d="M148.46,201.49c-93.85,69.85-.92,32.65,33.54,57.47,51.76,37.27-116.61,72.73-76.18,124.6,17.96,59.86,47.4,58.37,88.87,36.99,37.55-19.35,82.98-57.21,139.32-55.97,76.98,1.69,68.79,77.01,131.94,10.74,101.7-28.16-15.19-34.61-39.55-76.27-26.29-44.95,101.14-34.97,124.5-60.15,12.27-13.23-31.34-46.77-93.5-53.76-49.42,20.63-98.99-14.3-138.65-41.37-30.74-20.99-103.89,8.32-170.27,57.72Z"/>
        <path class="st52" d="M143.51,201.08c-93.24,69.42-1.76,33.04,32.15,57.96,50.85,37.37-115.8,72.83-75.72,124.59,17.99,60.42,47.5,58.65,89,36.92,37.66-19.72,83.2-58.06,139.62-56.8,77.53,1.73,68.77,78.03,132.15,11.04,100.78-28.1-14.82-34.74-38.88-76.21-26-44.83,100.13-35.24,123.03-60.37,12.07-13.25-31.32-46.47-93.01-53.13-49.41,21.09-98.82-14.05-138.26-41.61-30.34-21.2-103.62,8.12-170.1,57.62Z"/>
        <path class="st66" d="M138.68,200.54c-92.64,69-2.6,33.42,30.77,58.45,49.94,37.46-114.99,72.93-75.25,124.57,18.01,60.98,47.6,58.94,89.13,36.84,37.76-20.09,83.41-58.91,139.92-57.62,78.07,1.78,68.75,79.05,132.37,11.35,99.86-28.04-14.45-34.87-38.2-76.16-25.71-44.7,99.12-35.52,121.57-60.59,11.88-13.26-31.29-46.17-92.52-52.51-49.41,21.54-98.65-13.8-137.87-41.84-29.95-21.41-103.36,7.93-169.92,57.51Z"/>
        <path class="st64" d="M133.98,199.86c-92.03,68.57-3.44,33.8,29.39,58.95,49.02,37.55-114.17,73.03-74.79,124.55,18.03,61.54,47.7,59.23,89.26,36.77,37.87-20.47,83.63-59.77,140.22-58.45,78.62,1.83,68.73,80.07,132.58,11.65,98.94-27.98-14.08-34.99-37.52-76.1-25.42-44.58,98.11-35.8,120.11-60.81,11.68-13.28-31.27-45.86-92.03-51.88-49.4,22-98.48-13.55-137.47-42.07-29.55-21.62-103.1,7.74-169.75,57.4Z"/>
        <path class="st83" d="M129.4,199.05c-91.43,68.15-4.27,34.18,28.01,59.44,48.11,37.64-113.36,73.14-74.33,124.54,18.05,62.1,47.8,59.52,89.39,36.7,37.98-20.84,83.84-60.62,140.52-59.27,79.17,1.88,68.71,81.09,132.8,11.96,98.02-27.92-13.71-35.12-36.85-76.05-25.13-44.45,97.1-36.08,118.65-61.03,11.48-13.3-31.24-45.56-91.54-51.26-49.39,22.46-98.32-13.29-137.08-42.31-29.16-21.82-102.84,7.54-169.57,57.29Z"/>
        <path class="st79" d="M124.95,198.11c-90.82,67.72-5.11,34.56,26.63,59.93,47.19,37.72-112.55,73.24-73.87,124.52,18.08,62.67,47.89,59.8,89.52,36.62,38.09-21.21,84.06-61.47,140.82-60.1,79.72,1.93,68.69,82.12,133.01,12.26,97.1-27.86-13.34-35.25-36.17-75.99-24.84-44.33,96.09-36.36,117.18-61.25,11.28-13.32-31.22-45.26-91.05-50.63-49.39,22.92-98.15-13.03-136.69-42.54-28.77-22.03-102.58,7.35-169.4,57.18Z"/>
        <path class="st129" d="M120.61,197.05c-90.22,67.3-5.96,34.93,25.25,60.42,46.27,37.8-111.74,73.34-73.4,124.51,18.1,63.23,47.99,60.09,89.66,36.55,38.19-21.58,84.27-62.33,141.12-60.93,80.27,1.98,68.67,83.14,133.23,12.57,96.18-27.8-12.97-35.38-35.49-75.94-24.55-44.2,95.08-36.64,115.72-61.47,11.09-13.34-31.19-44.95-90.56-50.01-49.38,23.38-97.99-12.77-136.29-42.77-28.38-22.23-102.31,7.16-169.22,57.07Z"/>
        <path class="st114" d="M116.4,195.87c-89.61,66.87-6.8,35.3,23.87,60.92,45.35,37.88-110.93,73.44-72.94,124.49,18.12,63.79,48.09,60.38,89.79,36.48,38.3-21.95,84.49-63.18,141.42-61.75,80.82,2.03,68.65,84.16,133.44,12.87,95.26-27.74-12.6-35.51-34.82-75.88-24.25-44.08,94.07-36.93,114.26-61.69,10.89-13.36-31.17-44.65-90.07-49.38-49.38,23.84-97.83-12.5-135.9-43.01-27.99-22.42-102.05,6.97-169.05,56.96Z"/>
        <path class="st114" d="M112.3,193.52c-89.01,66.44-7.64,35.68,22.49,61.41,44.44,37.96-110.11,73.54-72.48,124.47,18.15,64.35,48.19,60.66,89.92,36.4,38.41-22.33,84.7-64.03,141.73-62.58,81.37,2.08,68.63,85.18,133.66,13.17,94.34-27.68-12.23-35.64-34.14-75.83-23.96-43.95,93.06-37.22,112.8-61.91,10.69-13.38-31.14-44.35-89.58-48.75-49.37,24.3-103.65-6.11-135.51-43.24-31.12-17.46-101.79,6.77-168.88,56.85Z"/>
        <path class="st43" d="M108.32,192.11c-88.4,66.02-8.48,36.05,21.11,61.9,43.52,38.03-109.3,73.64-72.02,124.46,18.17,64.91,48.28,60.95,90.05,36.33,38.51-22.7,84.92-64.89,142.03-63.4,81.92,2.13,68.61,86.2,133.87,13.48,93.42-27.62-11.86-35.77-33.46-75.77-23.67-43.83,92.05-37.51,111.33-62.13,10.5-13.4-31.12-44.04-89.09-48.13-49.36,24.76-103.59-5.88-135.11-43.47-30.78-17.71-101.53,6.58-168.7,56.74Z"/>
        <path class="st171" d="M104.45,190.59c-87.8,65.59-9.33,36.41,19.73,62.4,42.6,38.1-108.49,73.74-71.55,124.44,18.19,65.47,48.38,61.23,90.18,36.26,38.61-23.08,85.13-65.74,142.33-64.23,82.47,2.18,68.59,87.22,134.08,13.78,92.5-27.56-11.49-35.9-32.79-75.72-23.38-43.71,91.04-37.8,109.87-62.35,10.3-13.43-31.09-43.74-88.6-47.5-49.36,25.22-103.53-5.65-134.72-43.71-30.44-17.95-101.27,6.39-168.53,56.63Z"/>
        <path class="st4" d="M100.7,188.96c-87.19,65.17-10.17,36.78,18.35,62.89,41.68,38.16-107.68,73.84-71.09,124.43,18.21,66.03,48.47,61.52,90.31,36.18,38.72-23.45,85.35-66.59,142.63-65.05,83.02,2.23,68.57,88.24,134.3,14.09,91.58-27.5-11.12-36.03-32.11-75.67-23.08-43.59,90.03-38.1,108.41-62.57,10.1-13.45-31.07-43.44-88.11-46.88-49.35,25.68-103.47-5.41-134.33-43.94-30.1-18.2-101,6.19-168.35,56.53Z"/>
        <path class="st132" d="M97.06,187.23c-86.59,64.74-11.01,37.14,16.97,63.38,40.76,38.23-106.87,73.94-70.63,124.41,18.24,66.6,48.57,61.8,90.44,36.11,38.82-23.82,85.56-67.44,142.93-65.88,83.56,2.28,68.55,89.26,134.51,14.39,90.66-27.44-10.75-36.16-31.44-75.61-22.79-43.46,89.01-38.39,106.95-62.79,9.91-13.48-31.05-43.14-87.62-46.25-49.35,26.13-103.41-5.18-133.93-44.17-29.75-18.44-100.74,6-168.18,56.42Z"/>
        <path class="st126" d="M93.53,185.39c-85.99,64.31-11.86,37.5,15.58,63.87,39.84,38.28-106.06,74.04-70.17,124.39,18.26,67.16,48.66,62.09,90.57,36.03,38.93-24.2,85.78-68.3,143.23-66.7,84.11,2.33,68.53,90.28,134.73,14.69,89.74-27.38-10.37-36.29-30.76-75.56-22.5-43.34,88-38.69,105.48-63.01,9.71-13.51-31.02-42.83-87.13-45.63-49.34,26.59-103.35-4.94-133.54-44.41-29.41-18.69-100.48,5.8-168,56.31Z"/>
        <path class="st160" d="M90.11,183.45c-85.38,63.89-12.71,37.86,14.2,64.37,38.92,38.34-105.24,74.14-69.7,124.38,18.28,67.72,48.76,62.37,90.7,35.96,39.03-24.57,85.99-69.15,143.53-67.53,84.66,2.38,68.52,91.3,134.94,15,88.82-27.32-10-36.42-30.08-75.5-22.21-43.22,86.99-39,104.02-63.23,9.52-13.54-31-42.53-86.64-45-49.33,27.05-103.29-4.71-133.15-44.64-29.07-18.94-100.22,5.61-167.83,56.2Z"/>
        <path class="st159" d="M86.8,181.41c-84.78,63.46-13.55,38.22,12.82,64.86,38.01,38.39-104.43,74.24-69.24,124.36,18.3,68.28,48.85,62.66,90.83,35.89,39.13-24.95,86.21-70,143.83-68.35,85.21,2.44,68.5,92.32,135.16,15.3,87.9-27.26-9.63-36.55-29.41-75.45-21.91-43.1,85.97-39.3,102.56-63.45,9.32-13.57-30.97-42.23-86.15-44.38-49.33,27.51-103.23-4.48-132.75-44.87-28.73-19.18-99.96,5.42-167.65,56.09Z"/>
        <path class="st57" d="M82.47,179.9c-84.17,63.03-14.4,38.57,11.44,65.35,37.09,38.44-94.43,69.06-68.78,124.35,29.98,64.62,48.94,62.94,90.96,35.81,39.23-25.33,86.42-70.85,144.13-69.18,85.76,2.49,68.48,93.34,135.37,15.61,86.98-27.2-9.26-36.68-28.73-75.39-21.62-42.98,84.95-39.61,101.1-63.67,9.12-13.6-30.95-41.92-85.66-43.75-49.32,27.97-103.17-4.24-132.36-45.11-28.39-19.43-99.7,5.22-167.48,55.98Z"/>
        <path class="st38" d="M79.38,178.63c-83.57,62.6-15.25,38.92,10.06,65.84,36.17,38.48-93.69,69.24-68.32,124.33,30.04,65.2,49.03,63.23,91.09,35.74,39.33-25.7,86.64-71.7,144.43-70,86.31,2.54,68.46,94.36,135.59,15.91,86.06-27.14-8.88-36.81-28.05-75.34-21.32-42.85,83.93-39.92,99.64-63.9,8.93-13.63-30.92-41.62-85.17-43.13-49.32,28.43-96.36-9.66-131.97-45.34-24.2-24.25-99.43,5.03-167.3,55.87Z"/>
        <path class="st87" d="M76.39,176.3c-82.97,62.18-16.09,39.27,8.68,66.34,35.25,38.52-92.96,69.42-67.85,124.31,30.09,65.78,49.13,63.51,91.22,35.67,39.43-26.08,86.85-72.56,144.74-70.83,86.86,2.59,68.44,95.38,135.8,16.22,85.14-27.08-8.51-36.95-27.38-75.28-21.03-42.73,82.91-40.23,98.17-64.12,8.73-13.67-30.9-41.32-84.68-42.5-49.31,28.89-96.23-9.36-131.57-45.57-23.83-24.43-99.17,4.84-167.13,55.76Z"/>
        <path class="st59" d="M73.51,173.89c-82.36,61.75-16.94,39.62,7.3,66.83,34.34,38.56-92.23,69.61-67.39,124.3,30.14,66.36,49.22,63.79,91.35,35.59,39.53-26.46,87.07-73.41,145.04-71.65,87.41,2.65,68.42,96.4,136.02,16.52,84.22-27.03-8.14-37.08-26.7-75.23-20.73-42.61,81.89-40.54,96.71-64.34,8.53-13.7-30.87-41.02-84.19-41.87-49.3,29.35-96.1-9.05-131.18-45.81-23.47-24.6-98.91,4.64-166.95,55.65Z"/>
        <path class="st99" d="M70.99,171.39c-81.76,61.32-17.78,39.96,5.92,67.32,33.42,38.59-91.5,69.79-66.93,124.28,30.19,66.94,49.31,64.08,91.48,35.52,39.63-26.83,87.28-74.26,145.34-72.48,87.95,2.7,68.4,97.42,136.23,16.82,83.3-26.97-7.76-37.21-26.02-75.17-20.44-42.49,76.95-43.74,95.25-64.56,5.8-14.98-30.85-40.71-83.7-41.25-49.3,29.81-95.98-8.74-130.79-46.04-23.11-24.76-98.65,4.45-166.78,55.54Z"/>
        <path class="st110" d="M68.3,168.81c-81.16,60.89-18.63,40.3,4.54,67.82,32.51,38.62-90.77,69.98-66.47,124.27,30.23,67.52,49.4,64.36,91.62,35.45,39.73-27.21,87.5-75.11,145.64-73.3,88.5,2.75,68.38,98.44,136.45,17.13,82.38-26.91-7.39-37.34-25.35-75.12-20.14-42.37,75.89-44.02,93.79-64.78,5.57-15-30.82-40.41-83.21-40.62-49.29,30.27-95.86-8.43-130.39-46.28-22.75-24.93-98.39,4.25-166.6,55.44Z"/>
        <path class="st147" d="M65.72,166.15c-80.56,60.47-19.48,40.64,3.16,68.31,31.6,38.64-90.05,70.16-66,124.25,30.27,68.11,49.49,64.64,91.75,35.37,39.83-27.59,87.71-75.96,145.94-74.13,89.05,2.8,68.36,99.46,136.66,17.43,81.46-26.85-7.02-37.48-24.67-75.06-19.85-42.25,74.83-44.3,92.32-65,5.34-15.01-30.8-40.11-82.72-40-49.29,30.73-95.75-8.12-130-46.51-22.39-25.1-98.13,4.06-166.43,55.33Z"/>
        <path class="st107" d="M63.23,163.42c-79.95,60.04-20.32,40.97,1.78,68.8,30.69,38.66-89.32,70.34-65.54,124.23,30.31,68.69,49.58,64.92,91.88,35.3,39.93-27.96,87.93-76.81,146.24-74.95,89.6,2.86,68.34,100.48,136.88,17.74,80.54-26.79-6.64-37.61-23.99-75.01-19.55-42.14,73.77-44.58,90.86-65.22,5.1-15.03-30.77-39.8-82.23-39.37-49.28,31.18-95.64-7.81-129.61-46.74-22.04-25.26-97.87,3.86-166.26,55.22Z"/>
        <path class="st125" d="M60.84,160.62c-79.35,59.61-21.16,41.3.4,69.29,29.78,38.67-88.6,70.53-65.08,124.22,30.35,69.28,49.67,65.21,92.01,35.23,40.03-28.34,88.14-77.66,146.54-75.78,90.15,2.91,68.32,101.5,137.09,18.04,79.62-26.73-6.27-37.75-23.32-74.95-19.26-42.02,72.71-44.86,89.4-65.44,4.87-15.05-30.75-39.5-81.74-38.75-49.27,31.64-95.54-7.49-129.21-46.98-21.68-25.42-97.61,3.67-166.08,55.11Z"/>
        <path class="st116" d="M58.55,157.74c-78.75,59.18-22.01,41.63-.99,69.79,28.88,38.68-87.87,70.71-64.61,124.2,30.38,69.86,49.76,65.49,92.14,35.15,40.12-28.72,88.36-78.52,146.84-76.6,90.7,2.97,68.3,102.52,137.3,18.35,78.7-26.67-5.89-37.88-22.64-74.9-18.96-41.9,71.65-45.14,87.94-65.66,4.63-15.06-30.72-39.2-81.26-38.12-49.27,32.1-95.43-7.17-128.82-47.21-21.33-25.59-97.35,3.47-165.91,55Z"/>
        <path class="st51" d="M56.35,154.8c-78.14,58.75-22.85,41.95-2.37,70.28,27.97,38.68-87.15,70.9-64.15,124.19,30.4,70.45,49.84,65.77,92.27,35.08,40.22-29.1,88.57-79.37,147.14-77.43,91.25,3.02,68.28,103.54,137.52,18.65,77.78-26.61-5.51-38.01-21.96-74.84-18.66-41.78,70.59-45.42,86.47-65.88,4.4-15.08-30.7-38.89-80.77-37.5-49.26,32.56-95.34-6.85-128.43-47.44-20.99-25.75-97.09,3.28-165.73,54.89Z"/>
        <path class="st124" d="M54.23,151.8c-77.54,58.32-23.69,42.28-3.75,70.77,27.07,38.68-86.43,71.08-63.69,124.17,30.43,71.04,49.93,66.05,92.4,35.01,40.32-29.48,88.79-80.22,147.44-78.25,91.8,3.07,68.26,104.56,137.73,18.95,76.86-26.55-5.14-38.15-21.29-74.79-18.36-41.66,69.53-45.7,85.01-66.1,4.16-15.09-30.67-38.59-80.28-36.87-49.26,33.02-95.25-6.52-128.03-47.68-20.64-25.91-96.82,3.08-165.56,54.78Z"/>
        <path class="st31" d="M52.21,148.74c-76.94,57.9-24.53,42.6-5.13,71.27,26.18,38.68-85.71,71.27-63.23,124.15,30.45,71.63,50.02,66.34,92.53,34.93,40.41-29.85,89-81.07,147.75-79.08,92.34,3.13,68.25,105.58,137.95,19.26,75.94-26.49-4.76-38.28-20.61-74.73-18.07-41.54,68.47-45.98,83.55-66.32,3.93-15.11-30.65-38.29-79.79-36.24-49.25,33.48-95.16-6.2-127.64-47.91-20.3-26.07-96.56,2.89-165.38,54.67Z"/>
        <path class="st75" d="M50.28,145.62c-76.34,57.47-25.37,42.91-6.51,71.76,25.28,38.67-84.99,71.45-62.76,124.14,30.46,72.22,50.11,66.62,92.66,34.86,40.51-30.23,89.22-81.92,148.05-79.9,92.89,3.18,68.23,106.6,138.16,19.56,75.02-26.43-4.38-38.42-19.93-74.68-17.77-41.43,67.41-46.26,82.09-66.54,3.69-15.12-30.62-37.99-79.3-35.62-49.24,33.94-95.08-5.87-127.25-48.14-19.96-26.23-96.3,2.69-165.21,54.56Z"/>
        <path class="st168" d="M48.44,142.44c-75.74,57.04-26.2,43.23-7.89,72.25,24.39,38.66-84.27,71.63-62.3,124.12,30.48,72.81,50.19,66.9,92.79,34.79,40.61-30.61,89.43-82.77,148.35-80.73,93.44,3.24,68.21,107.62,138.38,19.87,74.1-26.37-4.01-38.56-19.26-74.62-17.47-41.31,66.36-46.54,80.62-66.76,3.46-15.14-30.6-37.68-78.81-34.99-49.24,34.4-95-5.54-126.85-48.38-19.62-26.39-96.04,2.5-165.03,54.45Z"/>
        <path class="st58" d="M46.68,139.21c-75.13,56.61-27.04,43.54-9.27,72.74,23.5,38.64-83.56,71.82-61.84,124.11,30.49,73.41,50.28,67.18,92.92,34.71,40.7-30.99,89.65-83.62,148.65-81.55,93.99,3.29,68.19,108.64,138.59,20.17,73.18-26.31-3.63-38.69-18.58-74.57-17.17-41.19,65.3-46.82,79.16-66.98,3.22-15.15-30.57-37.38-78.32-34.37-49.23,34.86-94.93-5.21-126.46-48.61-19.29-26.54-95.78,2.3-164.86,54.35Z"/>
        <path class="st93" d="M45.01,135.94c-74.53,56.18-27.87,43.84-10.65,73.24,22.62,38.62-82.84,72-61.38,124.09,30.49,74,50.36,67.47,93.05,34.64,40.8-31.37,89.86-84.47,148.95-82.38,94.54,3.35,68.17,109.66,138.81,20.48,72.26-26.25-3.25-38.83-17.9-74.51-16.87-41.08,64.24-47.1,77.7-67.2,2.99-15.17-30.55-37.08-77.83-33.74-49.22,35.32-94.86-4.88-126.07-48.84-18.95-26.7-95.52,2.11-164.68,54.24Z"/>
        <path class="st72" d="M43.42,132.61c-73.93,55.75-28.69,44.15-12.03,73.73,21.74,38.6-82.13,72.18-60.91,124.07,30.49,74.6,50.45,67.75,93.18,34.57,40.89-31.75,90.08-85.32,149.25-83.2,95.09,3.4,68.15,110.68,139.02,20.78,71.34-26.19-2.87-38.96-17.23-74.46-16.57-40.96,63.18-47.38,76.24-67.42,2.75-15.18-30.52-36.77-77.34-33.12-49.22,35.78-94.8-4.55-125.67-49.08-18.62-26.86-95.26,1.91-164.51,54.13Z"/>
        <path class="st23" d="M41.91,129.25c-73.33,55.32-29.52,44.45-13.41,74.22,20.86,38.57-81.41,72.37-60.45,124.06,30.49,75.19,50.53,68.03,93.31,34.49,40.98-32.13,90.29-86.17,149.55-84.03,95.64,3.46,68.13,111.71,139.24,21.08,70.42-26.13-2.49-39.1-16.55-74.4-16.27-40.85,62.12-47.66,74.77-67.64,2.52-15.2-30.5-36.47-76.85-32.49-49.21,36.23-94.74-4.21-125.28-49.31-18.3-27.02-95,1.71-164.33,54.02Z"/>
        <path class="st28" d="M40.49,125.85c-72.73,54.89-30.34,44.75-14.79,74.72,19.99,38.53-80.7,72.55-59.99,124.04,30.48,75.79,50.62,68.31,93.45,34.42,41.08-32.51,90.51-87.02,149.85-84.86,96.18,3.52,68.11,112.73,139.45,21.39,69.5-26.07-2.11-39.24-15.87-74.35-15.97-40.73,61.06-47.94,73.31-67.86,2.28-15.21-30.48-36.17-76.36-31.87-49.21,36.69-94.68-3.88-124.89-49.54-17.97-27.18-94.74,1.52-164.16,53.91Z"/>
        <path class="st13" d="M39.14,122.4c-72.13,54.46-31.16,45.05-16.17,75.21,19.13,38.5-79.99,72.73-59.53,124.03,30.47,76.39,50.7,68.59,93.58,34.35,41.17-32.89,90.72-87.87,150.15-85.68,96.73,3.57,68.09,113.75,139.67,21.69,68.58-26.01-1.73-39.38-15.2-74.3-15.66-40.61,60-48.22,71.85-68.08,2.05-15.23-30.45-35.87-75.87-31.24-49.2,37.15-94.64-3.54-124.49-49.78-17.65-27.33-94.48,1.32-163.99,53.8Z"/>
        <path class="st42" d="M37.87,118.93c-71.52,54.03-31.98,45.34-17.56,75.7,18.26,38.46-79.28,72.92-59.06,124.01,30.46,76.99,50.79,68.88,93.71,34.27,41.26-33.26,90.94-88.73,150.45-86.51,97.28,3.63,68.07,114.77,139.88,22,67.66-25.95-1.35-39.51-14.52-74.24-15.36-40.5,58.94-48.5,70.39-68.3,1.82-15.24-30.43-35.56-75.38-30.62-49.19,37.61-94.59-3.21-124.1-50.01-17.33-27.49-94.22,1.12-163.81,53.69Z"/>
        <path class="st3" d="M36.68,115.42c-70.92,53.6-32.79,45.63-18.94,76.19,17.41,38.41-78.57,73.1-58.6,124,30.44,77.59,50.87,69.16,93.84,34.2,41.35-33.64,91.15-89.58,150.76-87.33,97.83,3.68,68.05,115.79,140.1,22.3,66.74-25.89-.97-39.65-13.84-74.19-15.06-40.39,57.88-48.78,68.92-68.52,1.58-15.26-30.4-35.26-74.89-29.99-49.19,38.07-94.56-2.87-123.71-50.24-17.01-27.65-93.96.93-163.64,53.58Z"/>
        <path class="st82" d="M35.56,111.89C-34.76,165.06,1.96,157.81,15.24,188.57c16.56,38.37-77.86,73.28-58.14,123.98,30.42,78.19,50.95,69.44,93.97,34.13,41.45-34.02,91.36-90.43,151.06-88.16,98.38,3.74,68.03,116.81,140.31,22.61,65.82-25.83-.58-39.79-13.17-74.13-14.76-40.27,56.82-49.06,67.46-68.74,1.35-15.27-30.38-34.96-74.4-29.36-49.18,38.53-94.52-2.53-123.31-50.48-16.7-27.81-93.71.73-163.46,53.47Z"/>
        <path class="st1" d="M34.51,108.33C-35.21,161.07.12,154.53,12.82,185.51c15.71,38.32-77.15,73.46-57.68,123.96,30.39,78.79,51.03,69.72,94.1,34.05,41.54-34.4,91.58-91.28,151.36-88.98,98.93,3.8,68.01,117.83,140.52,22.91,64.9-25.77-.2-39.93-12.49-74.08-14.45-40.16,55.76-49.34,66-68.96,1.11-15.29-30.35-34.65-73.91-28.74-49.18,38.99-94.49-2.19-122.92-50.71-16.38-27.97-93.45.53-163.29,53.37Z"/>
        <path class="st16" d="M33.54,104.74C-35.58,157.05-1.65,151.24,10.46,182.42c14.87,38.27-76.45,73.64-57.21,123.95,30.36,79.4,51.12,70,94.23,33.98,41.63-34.78,91.79-92.13,151.66-89.81,99.48,3.85,67.99,118.85,140.74,23.21,63.98-25.71.18-40.07-11.82-74.02-14.15-40.04,54.7-49.63,64.54-69.18.88-15.3-30.33-34.35-73.42-28.11-49.17,39.45-94.47-1.85-122.52-50.95-16.07-28.13-93.19.34-163.11,53.26Z"/>
        <path class="st69" d="M32.64,101.14C-35.88,153.02-3.35,147.92,8.18,179.31c14.04,38.22-75.74,73.82-56.75,123.93,30.32,80,51.2,70.28,94.36,33.91,41.72-35.16,92.01-92.98,151.96-90.63,100.02,3.91,67.98,119.87,140.95,23.52,63.06-25.65.56-40.2-11.14-73.97-13.84-39.93,53.64-49.91,63.07-69.4.64-15.32-30.3-34.05-72.93-27.49-49.16,39.91-94.45-1.51-122.13-51.18-15.76-28.29-92.93.14-162.94,53.15Z"/>
        <path class="st92" d="M31.81,97.52C-36.11,148.97-4.97,144.58,5.97,176.18c13.21,38.17-75.04,74-56.29,123.92,30.28,80.61,51.28,70.57,94.49,33.83,41.81-35.54,92.22-93.83,152.26-91.46,100.57,3.97,67.96,120.89,141.17,23.82,62.14-25.6.95-40.34-10.46-73.91-13.54-39.82,52.58-50.19,61.61-69.62.41-15.34-30.28-33.74-72.44-26.86-49.16,40.37-94.44-1.18-121.74-51.41-15.46-28.45-92.67-.06-162.76,53.04Z"/>
        <path class="st152" d="M31.05,93.89C-36.27,144.91-6.51,141.23,3.83,173.04c12.39,38.11-74.33,74.18-55.83,123.9,30.23,81.22,51.36,70.85,94.62,33.76,41.9-35.92,92.44-94.68,152.56-92.28,101.12,4.03,67.94,121.91,141.38,24.13,61.22-25.54,1.33-40.48-9.79-73.86-13.23-39.7,51.52-50.47,60.15-69.84.17-15.35-30.25-33.44-71.95-26.24-49.15,40.82-94.43-.84-121.34-51.65-15.15-28.61-92.41-.25-162.59,52.93Z"/>
        <path class="st102" d="M30.35,90.25C-36.37,140.83-7.99,137.87,1.75,169.89c11.57,38.05-73.63,74.36-55.36,123.88,30.18,81.82,51.44,71.13,94.75,33.69,41.99-36.3,92.65-95.53,152.86-93.11,101.67,4.09,67.92,122.93,141.6,24.43,60.3-25.48,1.72-40.62-9.11-73.8-12.92-39.59,50.46-50.75,58.69-70.06-.06-15.37-30.23-33.14-71.46-25.61-49.15,41.28-94.43-.5-120.95-51.88-14.85-28.77-92.15-.45-162.41,52.82Z"/>
        <path class="st119" d="M29.72,86.6C-36.4,136.75-9.39,134.5-.26,166.73c10.76,38-72.93,74.54-54.9,123.87,30.13,82.43,51.52,71.41,94.88,33.61,42.08-36.68,92.87-96.38,153.16-93.93,102.22,4.14,67.9,123.95,141.81,24.74,59.38-25.42,2.11-40.76-8.43-73.75-12.61-39.48,49.41-51.03,57.23-70.29-.3-15.38-30.2-32.84-70.97-24.99-49.14,41.74-94.43-.16-120.56-52.11-14.55-28.94-91.89-.65-162.24,52.71Z"/>
        <path class="st172" d="M29.16,82.94C-36.36,132.67-10.72,131.12-2.21,163.57c9.96,37.94-72.23,74.72-54.44,123.85,30.07,83.04,51.6,71.69,95.01,33.54,42.17-37.06,93.08-97.23,153.46-94.76,102.77,4.2,67.88,124.97,142.03,25.04,58.46-25.36,2.49-40.9-7.76-73.69-12.3-39.37,48.35-51.31,55.76-70.51-.53-15.4-30.18-32.53-70.48-24.36-49.13,42.2-94.44.17-120.16-52.35-14.26-29.1-91.64-.85-162.06,52.6Z"/>
        <path class="st108" d="M28.65,79.29C-36.26,128.58-11.99,127.75-4.09,160.41c9.16,37.89-71.53,74.9-53.98,123.84,30,83.66,51.68,71.98,95.14,33.47,42.26-37.44,93.3-98.08,153.77-95.58,103.32,4.26,67.86,125.99,142.24,25.34,57.54-25.3,2.88-41.04-7.08-73.64-11.99-39.26,47.29-51.59,54.3-70.73-.77-15.41-30.15-32.23-69.99-23.73-49.13,42.66-94.45.51-119.77-52.58-13.96-29.27-91.38-1.05-161.89,52.49Z"/>
        <path class="st10" d="M28.22,75.63C-36.1,124.49-13.18,124.37-5.91,157.25c8.37,37.83-70.83,75.08-53.51,123.82,29.93,84.27,51.76,72.26,95.27,33.39,42.34-37.82,93.51-98.93,154.07-96.41,103.86,4.32,67.84,127.01,142.46,25.65,56.62-25.24,3.27-41.18-6.4-73.58-11.68-39.14,46.23-51.87,52.84-70.95-1-15.43-30.13-31.93-69.5-23.11-49.12,43.12-94.47.85-119.38-52.81-13.67-29.44-91.12-1.25-161.72,52.38Z"/>
        <path class="st111" d="M27.84,71.98C-35.88,120.41-14.31,121-7.67,154.09-.09,191.86-77.8,229.34-60.72,277.89c29.86,84.88,51.84,72.54,95.41,33.32,42.43-38.2,93.73-99.78,154.37-97.23,104.41,4.38,67.82,128.03,142.67,25.95,55.7-25.18,3.66-41.32-5.73-73.53-11.37-39.03,45.17-52.15,51.38-71.17-1.23-15.44-30.1-31.62-69.01-22.48-49.12,43.58-94.49,1.18-118.98-53.05-13.37-29.61-90.86-1.44-161.54,52.28Z"/>
        <path class="st146" d="M27.52,68.33C-35.59,116.33-15.37,117.64-9.37,150.93c6.8,37.72-69.43,75.43-52.59,123.79,29.78,85.5,51.92,72.82,95.54,33.25,42.52-38.58,93.94-100.63,154.67-98.06,104.96,4.44,67.8,129.05,142.89,26.26,54.78-25.12,4.05-41.46-5.05-73.47-11.06-38.92,44.11-52.43,49.91-71.39-1.47-15.46-30.08-31.32-68.52-21.86-49.11,44.04-94.51,1.51-118.59-53.28-13.08-29.77-90.6-1.64-161.37,52.17Z"/>
        <path class="st74" d="M27.26,64.7c-62.52,47.56-43.63,49.59-38.27,83.09,6.02,37.67-68.73,75.61-52.12,123.77,29.7,86.11,52,73.1,95.67,33.17,42.61-38.96,94.16-101.47,154.97-98.88,105.51,4.5,67.78,130.07,143.1,26.56,53.86-25.06,4.44-41.61-4.37-73.42-10.75-38.81,43.05-52.71,48.45-71.61-1.7-15.47-30.05-31.02-68.03-21.23-49.1,44.5-94.54,1.85-118.2-53.51-12.8-29.95-90.35-1.84-161.19,52.06Z"/>
        <path class="st151" d="M27.06,61.08c-61.92,47.13-44.36,49.87-39.65,83.59,5.25,37.62-68.04,75.78-51.66,123.76,29.61,86.73,52.08,73.39,95.8,33.1,42.69-39.34,94.37-102.32,155.27-99.71,106.06,4.56,67.76,131.09,143.32,26.87,52.94-25,4.83-41.75-3.7-73.36-10.43-38.7,41.99-52.99,46.99-71.83-1.94-15.49-30.03-30.72-67.54-20.61-49.1,44.96-94.57,2.18-117.8-53.75-12.51-30.12-90.09-2.04-161.02,51.95Z"/>
        <path class="st89" d="M26.92,57.47c-61.32,46.7-45.08,50.16-41.03,84.08,4.49,37.58-67.34,75.96-51.2,123.74,29.51,87.34,52.15,73.67,95.93,33.03,42.78-39.72,94.58-103.17,155.57-100.53,106.61,4.62,67.74,132.11,143.53,27.17,52.02-24.94,5.22-41.89-3.02-73.31-10.12-38.59,40.93-53.27,45.53-72.05-2.17-15.5-30-30.41-67.05-19.98-49.09,45.42-94.61,2.51-117.41-53.98-12.23-30.29-89.83-2.24-160.84,51.84Z"/>
        <path class="st34" d="M26.82,53.88c-60.72,46.27-45.8,50.44-42.41,84.57,3.73,37.53-66.65,76.13-50.74,123.72,29.41,87.96,52.23,73.95,96.06,32.95,42.87-40.1,94.8-104.02,155.87-101.36,107.15,4.68,67.73,133.13,143.75,27.47,51.1-24.88,5.61-42.03-2.34-73.25-9.8-38.48,39.87-53.55,44.06-72.27-2.41-15.52-29.98-30.11-66.56-19.36-49.09,45.87-94.65,2.83-117.02-54.21C175.55-28.32,97.92-.29,26.82,53.88Z"/>
        <path class="st170" d="M26.79,50.32c-60.12,45.83-46.52,50.73-43.79,85.06,2.98,37.49-65.96,76.3-50.27,123.71,29.3,88.58,52.31,74.23,96.19,32.88,42.95-40.48,95.01-104.87,156.17-102.18,107.7,4.74,67.71,134.15,143.96,27.78,50.18-24.82,6-42.17-1.67-73.2-9.49-38.37,38.81-53.83,42.6-72.49-2.64-15.53-29.96-29.81-66.07-18.73-49.08,46.33-94.7,3.16-116.62-54.45-11.66-30.65-89.32-2.64-160.49,51.62Z"/>
        <path class="st133" d="M26.8,46.78c-59.52,45.4-47.23,51.03-45.17,85.56,2.23,37.45-65.26,76.48-49.81,123.69,29.19,89.2,52.39,74.52,96.32,32.81,43.04-40.86,95.23-105.72,156.47-103.01,108.25,4.8,67.69,135.17,144.17,28.08,49.26-24.76,6.4-42.31-.99-73.14-9.17-38.26,37.75-54.11,41.14-72.71-2.88-15.55-29.93-29.5-65.58-18.11-49.07,46.79-94.75,3.49-116.23-54.68-11.38-30.82-89.06-2.84-160.32,51.51Z"/>
        <path class="st142" d="M26.87,43.26c-58.92,44.97-47.93,51.32-46.55,86.05,1.49,37.42-64.57,76.65-49.35,123.68,29.08,89.82,52.46,74.8,96.45,32.73,43.13-41.24,95.44-106.57,156.78-103.83,108.8,4.86,67.67,136.19,144.39,28.39,48.34-24.7,6.79-42.45-.31-73.09-8.85-38.15,36.69-54.39,39.68-72.93-3.11-15.56-29.91-29.2-65.09-17.48-49.07,47.25-94.8,3.81-115.84-54.91-11.11-31-88.81-3.04-160.14,51.4Z"/>
        <path class="st45" d="M26.98,39.78C-31.34,84.31-21.65,91.4-20.96,126.32c.75,37.39-63.88,76.82-48.89,123.66,28.95,90.44,52.54,75.08,96.58,32.66,43.21-41.62,95.66-107.42,157.08-104.66,109.35,4.92,67.65,137.21,144.6,28.69,47.42-24.64,7.19-42.6.36-73.03-8.53-38.04,35.63-54.67,38.21-73.15-3.35-15.58-29.88-28.9-64.6-16.85-49.06,47.71-94.86,4.13-115.44-55.15-10.83-31.19-88.55-3.24-159.97,51.29Z"/>
        <path class="st39" d="M27.13,36.33C-30.59,80.43-22.19,88.25-22.18,123.36c0,37.37-63.19,76.99-48.42,123.64,28.82,91.07,52.62,75.36,96.71,32.58,43.3-42,95.87-108.27,157.38-105.48,109.89,4.98,67.63,138.23,144.82,29,46.5-24.58,7.58-42.74,1.04-72.98-8.21-37.93,37.75-54.85,36.75-73.37-.86-15.98-29.86-28.59-64.12-16.23-49.06,48.17-94.92,4.45-115.05-55.38-10.55-31.37-88.29-3.44-159.79,51.19Z"/>
        <path class="st112" d="M27.33,32.91C-29.79,76.58-22.68,85.15-23.36,120.44c-.72,37.35-62.5,77.16-47.96,123.63,28.69,91.69,52.69,75.65,96.84,32.51,43.38-42.38,96.09-109.12,157.68-106.31,110.44,5.04,67.61,139.25,145.03,29.3,45.58-24.52,7.98-42.88,1.72-72.92-7.89-37.82,36.61-55.2,35.29-73.59-1.15-16.03-29.83-28.29-63.63-15.6-49.05,48.63-94.99,4.77-114.66-55.62-10.28-31.56-88.04-3.65-159.62,51.08Z"/>
        <path class="st109" d="M27.58,29.54C-28.95,72.77-23.12,82.08-24.5,117.56c-1.45,37.33-61.81,77.33-47.5,123.61,28.55,92.31,52.77,75.93,96.97,32.44,43.47-42.76,96.3-109.97,157.98-107.13,110.99,5.1,67.59,140.27,145.25,29.6,44.66-24.46,8.38-43.02,2.39-72.87-7.56-37.71,35.46-55.54,33.83-73.81-1.44-16.08-29.81-27.99-63.14-14.98-49.04,49.09-95.05,5.08-114.26-55.85-10.01-31.74-87.78-3.85-159.45,50.97Z"/>
        <path class="st130" d="M27.86,26.2C-28.06,69.01-23.51,79.06-25.59,114.72c-2.18,37.32-61.13,77.5-47.04,123.6,28.4,92.94,52.84,76.21,97.1,32.36,43.55-43.14,96.52-110.82,158.28-107.96,111.54,5.16,67.57,141.3,145.46,29.91,43.74-24.4,8.78-43.16,3.07-72.82-7.24-37.6,34.32-55.87,32.36-74.03-1.73-16.12-29.78-27.69-62.65-14.35-49.04,49.55-95.12,5.4-113.87-56.08-9.74-31.93-87.53-4.05-159.27,50.86Z"/>
        <path class="st173" d="M28.19,22.91C-27.14,65.28-23.86,76.1-26.65,111.92c-2.9,37.32-60.44,77.66-46.57,123.58,28.25,93.56,52.92,76.49,97.24,32.29,43.63-43.52,96.73-111.67,158.58-108.79,112.09,5.22,67.55,142.32,145.68,30.21,42.82-24.34,9.18-43.3,3.75-72.76-6.91-37.49,33.17-56.21,30.9-74.25-2.03-16.17-29.76-27.38-62.16-13.73-49.03,50.01-95.2,5.71-113.48-56.32-9.47-32.12-87.27-4.25-159.1,50.75Z"/>
        <path class="st138" d="M28.55,19.67C-26.18,61.61-24.17,73.18-27.67,109.17c-3.62,37.32-59.75,77.83-46.11,123.56,28.09,94.19,52.99,76.78,97.37,32.22,43.72-43.9,96.94-112.52,158.88-109.61,112.64,5.28,67.53,143.34,145.89,30.52,41.9-24.28,9.58-43.44,4.42-72.71-6.58-37.38,32.02-56.54,29.44-74.47-2.33-16.21-29.73-27.08-61.67-13.1-49.03,50.46-95.27,6.02-113.08-56.55-9.2-32.31-87.02-4.46-158.92,50.64Z"/>
        <path class="st117" d="M28.95,16.48C-25.18,57.99-24.44,70.32-28.65,106.48c-4.34,37.33-59.07,77.99-45.65,123.55,27.93,94.82,53.07,77.06,97.5,32.14,43.8-44.28,97.16-113.36,159.18-110.44,113.18,5.35,67.51,144.36,146.11,30.82,40.98-24.23,9.98-43.59,5.1-72.65-6.26-37.27,30.87-56.87,27.98-74.69-2.63-16.25-29.71-26.78-61.18-12.48-49.02,50.92-95.35,6.33-112.69-56.78-8.93-32.51-86.76-4.66-158.75,50.53Z"/>
        <path class="st35" d="M29.39,13.35C-24.14,54.42-24.67,67.52-29.59,103.83c-5.06,37.34-58.38,78.16-45.19,123.53,27.76,95.45,53.14,77.34,97.63,32.07,43.88-44.66,97.37-114.21,159.48-111.26,113.73,5.41,67.49,145.38,146.32,31.13,40.06-24.17,10.38-43.73,5.77-72.6-5.93-37.16,29.71-57.19,26.51-74.91-2.94-16.28-29.68-26.47-60.69-11.85-49.01,51.38-95.44,6.63-112.3-57.02-8.66-32.7-86.51-4.86-158.57,50.42Z"/>
        <path class="st19" d="M29.86,10.27C-23.07,50.9-24.87,64.77-30.5,101.25c-5.77,37.36-57.7,78.32-44.72,123.52,27.58,96.08,53.22,77.63,97.76,32,43.97-45.04,97.59-115.06,159.79-112.09,114.28,5.47,67.47,146.4,146.54,31.43,39.14-24.11,10.78-43.87,6.45-72.54-5.6-37.05,28.56-57.51,25.05-75.13-3.24-16.32-29.66-26.17-60.2-11.23-49.01,51.84-95.52,6.93-111.9-57.25-8.4-32.9-86.25-5.07-158.4,50.31Z"/>
        <path class="st139" d="M30.36,7.25C-21.97,47.45-25.02,62.1-31.38,98.72c-6.49,37.38-57.01,78.48-44.26,123.5,27.4,96.71,53.29,77.91,97.89,31.92,44.05-45.42,97.8-115.91,160.09-112.91,114.83,5.53,67.46,147.42,146.75,31.73,38.22-24.05,11.19-44.01,7.13-72.49-5.26-36.94,27.4-57.83,23.59-75.35-3.55-16.35-32.73-30.85-59.71-10.6-57.32,43.02-95.61,7.23-111.51-57.48-8.13-33.1-86-5.27-158.22,50.2Z"/>
        <path class="st30" d="M30.9,4.29C-20.84,44.06-25.15,59.49-32.23,96.25c-7.2,37.41-56.33,78.64-43.8,123.48,27.21,97.34,53.37,78.19,98.02,31.85,44.13-45.8,98.02-116.76,160.39-113.74,115.38,5.59,67.44,148.44,146.97,32.04,37.3-23.99,11.59-44.15,7.8-72.43-4.93-36.83,26.24-58.14,22.13-75.57-3.87-16.38-32.65-30.32-59.22-9.97-57.17,43.78-95.7,7.53-111.12-57.72-7.87-33.3-85.75-5.47-158.05,50.1Z"/>
        <path class="st47" d="M31.46,1.4C-19.68,40.73-25.25,56.95-33.05,93.85c-7.91,37.44-55.65,78.8-43.34,123.47,27.01,97.97,53.44,78.48,98.15,31.78,44.22-46.18,98.23-117.61,160.69-114.56,115.92,5.66,67.42,149.46,147.18,32.34,36.38-23.93,12-44.29,8.48-72.38-4.6-36.72,25.08-58.45,20.66-75.79-4.18-16.4-32.56-29.79-58.73-9.35-57,44.54-95.79,7.83-110.72-57.95-7.61-33.51-85.49-5.68-157.87,49.99Z"/>
        <path class="st156" d="M32.04-1.43C-18.5,37.47-25.32,54.48-33.84,91.52c-8.62,37.48-54.97,78.96-42.87,123.45,26.81,98.6,53.51,78.76,98.28,31.7,44.3-46.56,98.45-118.46,160.99-115.39,116.47,5.72,67.4,150.48,147.39,32.65,35.46-23.87,12.4-44.43,9.16-72.32-4.26-36.6,23.93-58.75,19.2-76.01-4.49-16.42-32.47-29.27-58.24-8.72-56.82,45.3-95.88,8.12-110.33-58.18-7.35-33.71-85.24-5.88-157.7,49.88Z"/>
        <path class="st121" d="M32.65-4.18C-17.29,34.28-25.36,52.09-34.61,89.26c-9.33,37.53-54.29,79.12-42.41,123.44,26.6,99.23,53.59,79.04,98.41,31.63,44.38-46.94,98.66-119.31,161.29-116.21,117.02,5.78,67.38,151.5,147.61,32.95,34.54-23.81,12.81-44.57,9.83-72.27-3.92-36.49,22.77-59.06,17.74-76.23-4.81-16.44-32.37-28.75-57.75-8.1-56.63,46.08-95.98,8.41-109.94-58.42-7.08-33.92-84.99-6.09-157.52,49.77Z"/>
        <path class="st46" d="M33.29-6.86C-16.06,31.17-25.39,49.78-35.36,87.08c-10.05,37.58-53.61,79.28-41.95,123.42,26.38,99.86,53.66,79.33,98.54,31.56,44.46-47.32,98.88-120.16,161.59-117.04,117.57,5.85,67.36,152.52,147.82,33.26,33.62-23.75,13.22-44.71,10.51-72.21-3.58-36.38,21.61-59.35,16.28-76.45-5.13-16.45-32.27-28.23-57.26-7.47-56.42,46.86-96.08,8.7-109.54-58.65-6.82-34.13-84.74-6.3-157.35,49.66Z"/>
        <path class="st37" d="M33.94-9.46C-14.81,28.13-25.39,47.54-36.09,84.97c-10.76,37.64-52.93,79.43-41.49,123.4,26.16,100.5,53.73,79.61,98.67,31.48,44.54-47.7,99.09-121,161.89-117.86,118.12,5.91,67.34,153.54,148.04,33.56,32.7-23.69,13.63-44.85,11.19-72.16-3.24-36.27,20.45-59.65,14.82-76.67-5.45-16.47-32.17-27.71-56.77-6.85-56.2,47.65-96.17,8.99-109.15-58.88-6.56-34.34-84.49-6.5-157.17,49.55Z"/>
        <path class="st166" d="M34.61-11.98C-13.54,25.17-25.37,45.4-36.8,82.94c-11.47,37.7-52.25,79.59-41.02,123.39,25.93,101.13,53.81,79.89,98.8,31.41,44.63-48.08,99.3-121.85,162.19-118.69,118.66,5.97,48.03,139.09,148.25,33.86,27.32-28.68,14.04-44.99,11.86-72.1-2.9-36.16,19.29-59.93,13.35-76.9-5.77-16.47-32.05-27.19-56.28-6.22-55.97,48.44-96.28,9.27-108.76-59.12-6.3-34.55-84.23-6.71-157,49.44Z"/>
        <path class="st135" d="M35.3-14.42C-12.26,22.3-25.34,43.34-37.49,80.99c-12.19,37.77-51.57,79.74-40.56,123.37,25.69,101.76,53.88,80.18,98.93,31.34,44.71-48.46,99.52-122.7,162.49-119.51,119.21,6.04,48.5,140.63,148.47,34.17,26.58-28.31,14.45-45.13,12.54-72.05-2.56-36.04,18.13-60.22,11.89-77.12-6.09-16.48-31.94-26.67-55.79-5.6-55.72,49.24-96.38,9.55-108.36-59.35-6.05-34.76-83.98-6.92-156.83,49.33Z"/>
        <path class="st157" d="M36-16.78C-10.96,19.51-25.3,41.37-38.17,79.13c-12.9,37.84-50.9,79.89-40.1,123.36,25.45,102.4,53.95,80.46,99.06,31.26,44.79-48.84,99.73-123.55,162.79-120.34,119.76,6.1,49.01,142.21,148.68,34.47,25.85-27.94,14.86-45.26,13.22-71.99-2.21-35.93,16.98-60.5,10.43-77.34-6.41-16.48-31.82-26.16-55.3-4.97-55.46,50.05-96.48,9.83-107.97-59.59-5.79-34.98-83.73-7.13-156.65,49.22Z"/>
        <path class="st8" d="M36.7-19.04C-9.66,16.81-25.25,39.49-38.85,77.36c-13.62,37.92-50.22,80.04-39.63,123.34,25.19,103.03,54.02,80.75,99.2,31.19,44.87-49.22,99.95-124.4,163.1-121.16,120.31,6.16,49.57,143.81,148.9,34.78,25.13-27.58,15.28-45.4,13.89-71.94-1.87-35.81,15.82-60.78,8.97-77.56-6.73-16.48-31.69-25.65-54.81-4.34-55.18,50.86-96.59,10.11-107.58-59.82-5.53-35.19-83.48-7.33-156.48,49.11Z"/>
        <path class="st136" d="M37.41-21.21C-8.35,14.2-25.2,37.71-39.52,75.68c-14.33,38-49.55,80.19-39.17,123.32,24.93,103.67,54.09,81.03,99.33,31.12,44.95-49.6,100.16-125.25,163.4-121.99,120.85,6.23,50.17,145.44,149.11,35.08,24.41-27.22,15.69-45.54,14.57-71.88-1.52-35.7,14.66-61.05,7.5-77.78-7.05-16.48-31.56-25.14-54.32-3.72C246,41.51,204.2.22,193.71-70.22c-5.27-35.41-83.23-7.54-156.3,49.01Z"/>
        <path class="st25" d="M38.12-23.29C-7.05,11.69-25.15,36.02-40.19,74.09c-15.05,38.08-48.87,80.34-38.71,123.31,24.67,104.3,54.17,81.31,99.46,31.04,45.03-49.98,100.37-125.97,163.7-122.81,121.39,6.53,50.82,147.1,149.33,35.39,23.69-26.87,16.11-45.67,15.25-71.83-1.17-35.58,13.51-61.32,6.04-78-7.38-16.47-31.42-24.64-53.83-3.09-54.59,52.5-96.8,10.66-106.79-60.29-5.02-35.63-82.98-7.75-156.13,48.9Z"/>
        <path class="st141" d="M38.82-25.27C-5.75,9.27-25.1,34.44-40.87,72.6c-15.77,38.17-48.2,80.49-38.25,123.29,24.39,104.94,54.24,81.6,99.59,30.97,45.11-50.36,100.58-126.83,164-123.64,121.94,6.58,51.52,148.8,149.54,35.69,22.98-26.52,16.52-45.81,15.92-71.77-.82-35.47,12.36-61.59,4.58-78.22-7.7-16.46-31.28-24.14-53.34-2.47-54.27,53.32-96.91,10.93-106.4-60.52-4.76-35.86-82.73-7.96-155.95,48.79Z"/>
        <path class="st141" d="M39.52-27.15C-4.46,6.95-25.07,32.96-41.56,71.21c-16.49,38.27-47.52,80.63-37.78,123.28,24.11,105.57,54.31,81.88,99.72,30.9,45.19-50.74,100.8-127.69,164.3-124.46,122.49,6.63,52.27,150.52,149.76,35.99,22.28-26.17,16.94-45.94,16.6-71.72-.46-35.35,11.2-61.85,3.12-78.44-8.02-16.45-31.14-23.64-52.85-1.84-53.94,54.15-97.02,11.19-106-60.75-4.51-36.08-82.49-8.17-155.78,48.68Z"/>
        <path class="st62" d="M40.19-28.93C-3.19,4.74-25.06,31.59-42.26,69.93c-17.22,38.36-46.85,80.78-37.32,123.26,23.82,106.21,54.38,82.17,99.85,30.82,45.27-51.12,101.01-128.54,164.6-125.29,123.04,6.68,53.08,152.28,149.97,36.3,21.58-25.83,17.36-46.08,17.28-71.66-.11-35.23,10.05-62.11,1.65-78.66-8.34-16.43-30.99-23.15-52.36-1.22-53.59,54.98-97.13,11.46-105.61-60.99-4.25-36.31-82.24-8.38-155.6,48.57Z"/>
        <path class="st24" d="M40.84-30.6C-1.94,2.63-25.07,30.33-43,68.75c-17.94,38.47-46.18,80.92-36.86,123.24,23.52,106.84,54.45,82.45,99.98,30.75,45.35-51.5,101.23-129.4,164.9-126.11,123.58,6.73,53.95,154.07,150.19,36.6,20.88-25.49,17.77-46.21,17.95-71.61.25-35.11,8.9-62.37.19-78.88-8.66-16.42-30.83-22.66-51.87-.59-53.23,55.82-97.24,11.72-105.22-61.22-3.99-36.53-81.99-8.6-155.43,48.46Z"/>
        <path class="st73" d="M41.44-32.17C-.74.63-25.13,29.18-43.77,67.68c-18.67,38.57-45.51,81.06-36.4,123.23,23.22,107.48,54.52,82.74,100.11,30.68,45.43-51.88,101.44-130.26,165.2-126.94,124.13,6.78,54.89,155.9,150.4,36.91,20.19-25.16,18.19-46.34,18.63-71.55.6-34.99,7.75-62.62-1.27-79.1-8.98-16.4-30.67-22.17-51.38.03-52.86,56.66-97.35,11.98-104.82-61.45-3.74-36.76-81.74-8.81-155.25,48.35Z"/>
        <path class="st2" d="M42-33.62C.42-1.25-25.24,28.14-44.59,66.72c-19.4,38.68-44.84,81.2-35.93,123.21,22.91,108.12,54.59,83.02,100.24,30.6,45.51-52.26,101.66-131.11,165.5-127.76,124.68,6.82,55.89,157.76,150.62,37.21,19.51-24.83,18.61-46.48,19.31-71.5.96-34.87,6.61-62.87-2.73-79.32-9.3-16.37-30.5-21.69-50.89.66-52.47,57.5-97.46,12.24-104.43-61.69-3.49-36.99-81.5-9.02-155.08,48.24Z"/>
        <path class="st81" d="M42.5-34.95C1.51-3.03-25.41,27.22-45.47,65.88c-20.13,38.79-44.17,81.34-35.47,123.2,22.59,108.75,54.66,83.31,100.37,30.53,45.59-52.63,101.87-131.97,165.8-128.59,125.23,6.87,56.97,159.66,150.83,37.52,18.83-24.51,19.03-46.61,19.98-71.44,1.33-34.75,5.46-63.12-4.2-79.54-9.61-16.35-30.33-21.21-50.4,1.28-52.06,58.34-97.58,12.5-104.04-61.92-3.23-37.23-81.25-9.24-154.9,48.13Z"/>
        <path class="st76" d="M42.94-36.16C2.49-4.74-25.65,26.43-46.42,65.17c-20.87,38.91-43.5,81.48-35.01,123.18,22.26,109.39,54.73,83.59,100.5,30.46,45.67-53.01,102.09-132.83,166.11-129.41,125.78,6.92,58.12,161.59,151.04,37.82,18.16-24.19,19.46-46.74,20.66-71.39,1.69-34.63,4.32-63.36-5.66-79.76-9.93-16.32-30.15-20.74-49.91,1.91-51.64,59.18-97.69,12.75-103.64-62.15-2.98-37.46-81.11-9.58-154.73,48.02Z"/>
        <path class="st144" d="M43.31-37.26C3.46-6.26-25.95,25.75-47.43,64.56c-21.6,39.03-42.83,81.61-34.55,123.16,21.92,110.02,54.8,83.88,100.63,30.38,45.74-53.39,102.3-133.69,166.41-130.24,126.33,6.97,59.36,163.56,151.26,38.12,17.5-23.89,19.88-46.87,21.34-71.34,2.05-34.5,3.18-63.6-7.12-79.98-10.24-16.29-29.97-20.27-49.42,2.54-51.21,60.03-97.8,13-103.25-62.39-2.72-37.69-80.85-9.78-154.56,47.92Z"/>
        <path class="st26" d="M43.63-38.22C4.39-7.65-26.3,25.22-48.49,64.09c-22.34,39.15-42.16,81.74-34.08,123.15,21.58,110.66,54.78,84.09,100.76,30.31,45.73-53.85,102.52-134.54,166.71-131.07,126.88,7.02,60.69,165.57,151.47,38.43,16.85-23.59,20.3-46.99,22.01-71.28,2.42-34.38,2.04-63.84-8.58-80.2-10.56-16.26-29.78-19.8-48.93,3.16-50.76,60.87-97.92,13.25-102.86-62.62-2.47-37.93-80.59-9.98-154.38,47.81Z"/>
        <path class="st44" d="M43.92-39.07C5.29-8.93-26.69,24.79-49.58,63.73c-23.08,39.27-41.49,81.88-33.62,123.13,21.23,111.29,54.88,84.39,100.89,30.24,45.84-54.21,102.73-135.4,167.01-131.89,127.43,7.07,62.1,167.61,151.69,38.73,16.2-23.3,20.73-47.12,22.69-71.23,2.79-34.25.9-64.07-10.05-80.42-10.87-16.23-29.59-19.34-48.44,3.79-50.3,61.71-98.03,13.5-102.46-62.85-2.22-38.17-80.33-10.17-154.21,47.7Z"/>
        <path class="st123" d="M44.2-39.8C6.17-10.07-27.09,24.49-50.68,63.5c-23.83,39.4-40.82,82.01-33.16,123.12,20.86,111.93,54.97,84.69,101.03,30.16,45.94-54.57,102.95-136.26,167.31-132.72,127.97,7.11,63.62,169.69,151.9,39.04,15.56-23.02,21.15-47.25,23.37-71.17,3.15-34.12-.24-64.31-11.51-80.64-11.18-16.2-29.4-18.89-47.95,4.41-49.83,62.56-98.14,13.74-102.07-63.09-1.96-38.41-80.07-10.37-154.03,47.59Z"/>
        <path class="st49" d="M44.45-40.39C7.03-11.09-27.52,24.33-51.81,63.4c-24.57,39.53-40.16,82.14-32.7,123.1,20.5,112.56,55.06,85,101.16,30.09,46.04-54.93,103.16-137.11,167.61-133.54,128.52,7.16,65.23,171.8,152.12,39.34,14.93-22.75,21.63-47.37,24.04-71.12,3.59-33.98-1.37-64.54-12.97-80.86-11.49-16.16-29.19-18.44-47.47,5.04-49.34,63.4-98.26,13.99-101.67-63.32-1.71-38.65-79.81-10.56-153.86,47.48Z"/>
        <path class="st131" d="M336.38,121.82c55.16-86.77,12.15-210.72-36.69-146.48-48.84,64.24-98.37,14.23-101.28-63.55-1.45-38.89-79.55-10.76-153.68,47.37C-29.41,17.29-99.57,105.42-85.16,186.52c20.12,113.19,55.15,85.3,101.29,30.02S119.51,78.57,184.04,82.17c129.07,7.21,66.95,173.95,152.33,39.65Z"/>
      </g>
    </g>
  </g>
</svg>